<?xml version="1.0" encoding="iso-8859-1"?>
<!-- Generator: Adobe Illustrator 19.0.0, SVG Export Plug-In . SVG Version: 6.00 Build 0)  -->
<svg xmlns="http://www.w3.org/2000/svg" xmlns:xlink="http://www.w3.org/1999/xlink" version="1.1" id="Capa_1" x="0px" y="0px" viewBox="0 0 512 512" style="enable-background:new 0 0 512 512;" xml:space="preserve" width="512px" height="512px">
<g>
	<g>
		<path d="M271,86.67v45.234c11.947,1.435,23.381,4.559,34.055,9.131l22.612-39.166C310.18,93.705,291.087,88.434,271,86.67z" fill="#FFFFFF"/>
	</g>
</g>
<g>
	<g>
		<path d="M380.088,271c-1.421,11.731-4.49,23.207-9.124,34.054l39.168,22.613c8.163-17.487,13.434-36.58,15.199-56.667H380.088z" fill="#FFFFFF"/>
	</g>
</g>
<g>
	<g>
		<path d="M410.132,184.333l-39.166,22.612c4.572,10.674,7.695,22.108,9.131,34.055h45.234    C423.566,220.913,418.295,201.819,410.132,184.333z" fill="#FFFFFF"/>
	</g>
</g>
<g>
	<g>
		<path d="M101.869,184.333c-8.164,17.487-13.435,36.58-15.199,56.668h45.234c1.434-11.948,4.558-23.382,9.13-34.056    L101.869,184.333z" fill="#FFFFFF"/>
	</g>
</g>
<g>
	<g>
		<path d="M184.332,101.868l22.612,39.165c10.675-4.571,22.109-7.695,34.056-9.13V86.669    C220.913,88.434,201.819,93.705,184.332,101.868z" fill="#FFFFFF"/>
	</g>
</g>
<g>
	<g>
		<path d="M131.912,271H86.669c1.765,20.087,7.036,39.181,15.199,56.668l39.16-22.609C136.398,294.203,133.331,282.727,131.912,271z    " fill="#FFFFFF"/>
	</g>
</g>
<g>
	<g>
		<path d="M158.374,116.906c-16.093,11.329-30.138,25.375-41.467,41.467l39.167,22.613c7.093-9.425,15.487-17.819,24.913-24.913    L158.374,116.906z" fill="#FFFFFF"/>
	</g>
</g>
<g>
	<g>
		<path d="M256,241c-8.271,0-15,6.729-15,15s6.729,15,15,15s15-6.729,15-15S264.271,241,256,241z" fill="#FFFFFF"/>
	</g>
</g>
<g>
	<g>
		<path d="M343.728,323.971l-12.987-7.52l7.525-12.984c5.813-10.029,9.706-21.053,11.533-32.467h-51.38    c-6.192,17.459-22.865,30-42.42,30c-24.813,0-45-20.187-45-45s20.187-45,45-45c19.555,0,36.228,12.541,42.42,30h51.392    c-7.214-45.281-46.532-80-93.812-80c-52.383,0-95,42.617-95,95c0,16.67,4.4,33.093,12.724,47.493l7.511,12.993l-64.328,37.14    C147.697,397.365,198.565,426,256,426s108.303-28.635,139.093-72.374C389.199,350.223,343.746,323.981,343.728,323.971z M301,371    h-90v-30h90V371z" fill="#FFFFFF"/>
	</g>
</g>
<g>
	<g>
		<path d="M353.627,116.907l-22.613,39.167c9.425,7.093,17.819,15.487,24.913,24.913l39.167-22.613    C383.765,142.281,369.719,128.235,353.627,116.907z" fill="#FFFFFF"/>
	</g>
</g>
<g>
	<g>
		<path d="M512,256c0-22.771-7.404-44.87-20.979-62.974c2.704-22.465-1.934-45.306-13.319-65.026    c-11.385-19.72-28.847-35.157-49.654-44.047C419.156,63.145,403.72,45.683,384,34.298c-15.954-9.212-34.078-14.081-52.412-14.081    c-4.204,0-8.426,0.255-12.615,0.761C300.87,7.405,278.771,0,256,0c-22.77,0-44.87,7.405-62.973,20.978    c-4.19-0.506-8.411-0.761-12.615-0.761c-18.333,0-36.457,4.869-52.412,14.081c-19.72,11.385-35.156,28.847-44.047,49.655    C63.145,92.844,45.683,108.28,34.298,128c-11.386,19.72-16.023,42.561-13.319,65.026C7.404,211.13,0,233.229,0,256    s7.404,44.87,20.979,62.974C18.274,341.439,22.912,364.28,34.297,384c11.385,19.72,28.847,35.156,49.655,44.047    c8.891,20.808,24.327,38.27,44.047,49.655c15.955,9.212,34.079,14.081,52.412,14.081c4.205,0,8.425-0.255,12.615-0.761    C211.13,504.595,233.23,512,256,512c22.771,0,44.87-7.405,62.973-20.978c4.189,0.506,8.41,0.761,12.615,0.761    c18.334,0,36.458-4.87,52.412-14.081c19.72-11.385,35.156-28.847,44.048-49.655c20.808-8.891,38.269-24.327,49.654-44.047    c11.385-19.72,16.023-42.561,13.319-65.026C504.596,300.87,512,278.771,512,256z M256,456c-110.28,0-200-89.72-200-200    S145.72,56,256,56s200,89.72,200,200S366.28,456,256,456z" fill="#FFFFFF"/>
	</g>
</g>
<g>
</g>
<g>
</g>
<g>
</g>
<g>
</g>
<g>
</g>
<g>
</g>
<g>
</g>
<g>
</g>
<g>
</g>
<g>
</g>
<g>
</g>
<g>
</g>
<g>
</g>
<g>
</g>
<g>
</g>
</svg>
