<?xml version="1.0" encoding="iso-8859-1"?>
<!-- Generator: Adobe Illustrator 19.0.0, SVG Export Plug-In . SVG Version: 6.00 Build 0)  -->
<svg xmlns="http://www.w3.org/2000/svg" xmlns:xlink="http://www.w3.org/1999/xlink" version="1.1" id="Layer_1" x="0px" y="0px" viewBox="0 0 512 512" style="enable-background:new 0 0 512 512;" xml:space="preserve" width="512px" height="512px">
<g>
	<g>
		<path d="M367.709,148.484l107.548,265.412l7.584-3.073l14.774,36.46l14.216-5.76l-14.774-36.46l5.787-2.345l6.301-42.744    l-98.332-242.668c3.041-6.387,4.652-13.399,4.652-20.508c0-16.715-8.887-32.245-23.004-40.835V24.752    C392.462,11.103,381.358,0,367.709,0c-13.648,0-24.752,11.103-24.752,24.752v31.211c-14.117,8.588-23.004,24.119-23.004,40.835    c0,7.11,1.611,14.121,4.652,20.508l-60.822,150.1L0.169,3.8V512h508.217L303.449,307.071L367.709,148.484z M493.363,361.868    l-3.425,23.228l-0.988,6.703l-5.239,2.122L381.803,142.421c0.231-0.072,0.456-0.159,0.685-0.233    c0.399-0.13,0.795-0.265,1.188-0.405c0.478-0.17,0.951-0.348,1.422-0.533c0.388-0.151,0.773-0.306,1.156-0.467    c0.468-0.197,0.931-0.406,1.392-0.618c0.374-0.173,0.748-0.345,1.119-0.527c0.459-0.226,0.911-0.464,1.362-0.705    c0.017-0.009,0.035-0.018,0.053-0.028c0.343-0.183,0.685-0.364,1.023-0.555c0.451-0.256,0.894-0.525,1.336-0.795    c0.341-0.208,0.684-0.411,1.02-0.628c0.449-0.289,0.888-0.595,1.327-0.9c0.315-0.218,0.634-0.43,0.944-0.655    c0.457-0.333,0.9-0.684,1.345-1.033c0.278-0.218,0.561-0.427,0.834-0.651c0.504-0.414,0.992-0.848,1.479-1.281    c0.199-0.178,0.406-0.346,0.602-0.527c0.019-0.017,0.04-0.034,0.058-0.051L493.363,361.868z M358.296,24.752    c0-5.19,4.223-9.414,9.414-9.414c5.191,0,9.414,4.223,9.414,9.414v25.216c-0.291-0.058-0.586-0.1-0.878-0.153    c-0.339-0.061-0.679-0.124-1.021-0.178c-0.504-0.08-1.01-0.145-1.517-0.209c-0.321-0.04-0.641-0.085-0.963-0.119    c-0.561-0.058-1.127-0.099-1.691-0.138c-0.272-0.019-0.542-0.046-0.815-0.06c-0.839-0.043-1.681-0.068-2.528-0.068    s-1.689,0.025-2.528,0.068c-0.273,0.014-0.544,0.041-0.816,0.06c-0.564,0.039-1.129,0.08-1.69,0.138    c-0.323,0.034-0.644,0.079-0.966,0.12c-0.506,0.063-1.011,0.129-1.513,0.209c-0.343,0.054-0.683,0.118-1.025,0.179    c-0.291,0.051-0.585,0.093-0.875,0.151V24.752z M353.899,67.467c4.34-2.047,8.986-3.086,13.811-3.086    c1.207,0,2.401,0.064,3.583,0.194c3.546,0.388,6.973,1.356,10.228,2.892l0.016,0.008c11.294,5.338,18.591,16.846,18.591,29.324    c0,5.712-1.513,11.334-4.379,16.26c-0.664,1.141-1.391,2.232-2.176,3.271c-0.785,1.039-1.63,2.025-2.526,2.955    c-0.01,0.011-0.021,0.02-0.032,0.032c-4.028,4.166-9.107,7.193-14.699,8.733c-1.868,0.514-3.794,0.863-5.756,1.034    c-2.079,0.18-3.624,0.179-5.696,0.001c-10.47-0.909-19.889-6.899-25.194-16.025c-2.864-4.926-4.378-10.549-4.378-16.26    C335.291,84.314,342.597,72.8,353.899,67.467z M335.27,131.83c0.019,0.018,0.041,0.035,0.06,0.053    c0.189,0.174,0.388,0.335,0.58,0.507c0.495,0.442,0.99,0.881,1.501,1.302c0.271,0.222,0.552,0.43,0.827,0.646    c0.447,0.351,0.893,0.703,1.351,1.037c0.311,0.227,0.632,0.44,0.948,0.659c0.438,0.304,0.874,0.607,1.322,0.896    c0.338,0.218,0.684,0.422,1.027,0.632c0.44,0.268,0.879,0.536,1.328,0.789c0.338,0.191,0.682,0.373,1.026,0.556    c0.02,0.01,0.041,0.02,0.06,0.032c0.447,0.238,0.895,0.474,1.35,0.698c0.374,0.184,0.754,0.359,1.132,0.534    c0.456,0.21,0.913,0.415,1.375,0.61c0.389,0.165,0.781,0.321,1.175,0.474c0.464,0.182,0.93,0.357,1.4,0.525    c0.402,0.143,0.806,0.28,1.212,0.413c0.225,0.074,0.446,0.159,0.673,0.229l-101.91,251.499l-5.239-2.122l-0.988-6.703    l-3.424-23.23L335.27,131.83z M266.138,399.148l21.22,21.22H248.71l3.867-9.544l7.584,3.074L266.138,399.148z M309.461,334.773    L454.1,479.408l17.255,17.254h-52.812v-17.254v-1.065h-15.338v1.065v17.254h-29.487v-17.254v-15.634h-15.338v15.634v17.254    h-29.487v-17.254v-1.065h-15.338v1.065v17.254h-29.487v-17.254v-15.634h-15.338v15.634v17.254H239.24v-17.254v-1.065h-15.338    v1.065v17.254h-29.129v-17.254v-15.634h-15.338v15.634v17.254h-29.487v-17.254v-1.065h-15.338v1.065v17.254h-29.847v-17.254    v-15.634H89.422v15.634v17.254H59.934v-17.254v-1.065H44.596v1.065v17.254H15.505v-30.169h17.254h0.854v-15.338h-0.854H15.505    v-29.488h17.254h15.422v-15.338H32.76H15.505V376.84h17.254h0.853v-15.338h-0.853H15.506v-29.487H32.76h15.421v-15.338H32.76    H15.506v-29.488H32.76h0.853v-15.338H32.76H15.506v-29.13H32.76h15.421v-15.338H32.76H15.506v-29.487H32.76h0.853v-15.338H32.76    H15.506v-29.846H32.76h15.421v-15.338H32.76H15.506v-29.487H32.76h0.852V92.545H32.76H15.506V40.828L32.76,58.082l213.395,213.389    l11.373,11.373l-9.067,22.377l-11.392-11.392L75.05,131.808l-10.845,10.846l166.596,166.597l11.406,11.406l-9.478,23.39    l-11.426-11.426L76.325,187.644v248.062h149.62l-2.357,5.817l14.216,5.76l4.691-11.577h81.893l-40.246-40.246l-11.749-11.749    l9.478-23.39l11.947,11.947l75.559,75.559l10.845-10.846l-80.018-80.018l-12.077-12.077l9.067-22.378L309.461,334.773z     M232.574,402.718l5.788,2.345l-6.202,15.305H91.664V224.674l134.809,134.809l-0.199,0.492L232.574,402.718z" fill="#FFFFFF"/>
	</g>
</g>
<g>
	<g>
		<path d="M367.709,81.666c-8.344,0-15.133,6.789-15.133,15.132c0,8.344,6.789,15.133,15.133,15.133s15.133-6.789,15.133-15.133    C382.842,88.455,376.053,81.666,367.709,81.666z M367.504,96.798c0-0.113,0.092-0.206,0.206-0.206    c0.113,0,0.206,0.092,0.206,0.206C367.915,97.026,367.504,97.026,367.504,96.798z" fill="#FFFFFF"/>
	</g>
</g>
<g>
</g>
<g>
</g>
<g>
</g>
<g>
</g>
<g>
</g>
<g>
</g>
<g>
</g>
<g>
</g>
<g>
</g>
<g>
</g>
<g>
</g>
<g>
</g>
<g>
</g>
<g>
</g>
<g>
</g>
</svg>
