<?xml version="1.0" encoding="utf-8"?>
<!-- Generator: Adobe Illustrator 16.0.0, SVG Export Plug-In . SVG Version: 6.00 Build 0)  -->
<!DOCTYPE svg PUBLIC "-//W3C//DTD SVG 1.1//EN" "http://www.w3.org/Graphics/SVG/1.1/DTD/svg11.dtd">
<svg version="1.1" id="Domain_Checker_2_" xmlns="http://www.w3.org/2000/svg" xmlns:xlink="http://www.w3.org/1999/xlink" x="0px"
	 y="0px" width="1200px" height="1200px" viewBox="0 0 1200 1200" enable-background="new 0 0 1200 1200" xml:space="preserve">
<g id="Background">
	<rect id="Background_1" fill="#03386E" width="1200" height="1200"/>
	<circle id="Background_2" fill="#1B4F7F" cx="600" cy="600" r="399"/>
</g>
<g id="Domain_Checker">
	<path fill="#F2F2F2" d="M390.914,1103.213c0,3.455-0.538,6.46-1.612,9.014c-1.076,2.555-2.592,4.666-4.551,6.336
		s-4.301,2.92-7.027,3.744c-2.728,0.825-5.722,1.238-8.986,1.238c-1.613,0-3.389-0.067-5.328-0.202
		c-1.939-0.135-3.696-0.393-5.271-0.776v-38.709c1.574-0.382,3.331-0.642,5.271-0.776c1.939-0.135,3.715-0.202,5.328-0.202
		c3.264,0,6.258,0.414,8.986,1.239c2.726,0.826,5.068,2.074,7.027,3.743c1.958,1.671,3.475,3.782,4.551,6.337
		C390.376,1096.752,390.914,1099.756,390.914,1103.213z M369.199,1118.648c5.299,0,9.254-1.353,11.865-4.06
		c2.611-2.708,3.917-6.499,3.917-11.376c0-4.878-1.306-8.67-3.917-11.377c-2.611-2.707-6.566-4.061-11.865-4.061
		c-1.575,0-2.794,0.02-3.658,0.058c-0.863,0.038-1.469,0.077-1.814,0.114v30.529c0.345,0.038,0.951,0.077,1.814,0.115
		C366.405,1118.63,367.624,1118.648,369.199,1118.648z"/>
	<path fill="#F2F2F2" d="M397.596,1103.213c0-3.418,0.508-6.432,1.526-9.044c1.017-2.61,2.399-4.789,4.147-6.538
		c1.747-1.746,3.782-3.061,6.105-3.945c2.323-0.883,4.79-1.325,7.402-1.325c2.572,0,5.001,0.442,7.286,1.325
		c2.285,0.885,4.292,2.199,6.019,3.945c1.728,1.749,3.101,3.928,4.119,6.538c1.017,2.612,1.526,5.626,1.526,9.044
		c0,3.417-0.509,6.431-1.526,9.042c-1.018,2.613-2.391,4.79-4.119,6.539c-1.728,1.747-3.734,3.062-6.019,3.944
		c-2.285,0.884-4.714,1.325-7.286,1.325c-2.612,0-5.079-0.441-7.402-1.325c-2.324-0.883-4.358-2.197-6.105-3.944
		c-1.748-1.749-3.13-3.926-4.147-6.539C398.104,1109.644,397.596,1106.63,397.596,1103.213z M403.471,1103.213
		c0,2.418,0.307,4.617,0.922,6.595c0.613,1.979,1.488,3.657,2.62,5.039c1.133,1.383,2.515,2.449,4.147,3.197
		c1.632,0.75,3.465,1.124,5.5,1.124s3.86-0.374,5.472-1.124c1.613-0.748,2.985-1.814,4.119-3.197
		c1.132-1.382,2.006-3.061,2.621-5.039c0.613-1.978,0.921-4.177,0.921-6.595c0-2.419-0.308-4.617-0.921-6.596
		c-0.615-1.979-1.489-3.658-2.621-5.04c-1.133-1.382-2.505-2.448-4.119-3.197c-1.612-0.749-3.437-1.124-5.472-1.124
		s-3.869,0.375-5.5,1.124c-1.632,0.749-3.015,1.815-4.147,3.197c-1.132,1.382-2.007,3.062-2.62,5.04
		C403.778,1098.596,403.471,1100.794,403.471,1103.213z"/>
	<path fill="#F2F2F2" d="M461.935,1117.67c-0.384-0.922-0.893-2.092-1.526-3.515c-0.634-1.42-1.316-2.955-2.045-4.607
		c-0.73-1.65-1.508-3.35-2.333-5.098c-0.827-1.746-1.604-3.398-2.333-4.952c-0.729-1.557-1.411-2.947-2.045-4.177
		c-0.633-1.229-1.143-2.169-1.526-2.822c-0.423,4.53-0.768,9.437-1.037,14.717s-0.5,10.607-0.691,15.984h-5.472
		c0.153-3.457,0.326-6.942,0.519-10.456c0.191-3.513,0.412-6.969,0.663-10.367c0.249-3.398,0.518-6.71,0.806-9.937
		c0.288-3.225,0.604-6.277,0.95-9.158h4.896c1.036,1.691,2.149,3.687,3.34,5.991c1.19,2.304,2.38,4.714,3.571,7.229
		c1.19,2.516,2.342,5.03,3.456,7.545c1.113,2.516,2.132,4.81,3.054,6.884c0.921-2.074,1.938-4.368,3.053-6.884
		c1.113-2.515,2.265-5.029,3.456-7.545c1.189-2.515,2.381-4.925,3.571-7.229c1.189-2.305,2.304-4.3,3.34-5.991h4.896
		c1.305,12.865,2.284,26.171,2.938,39.918h-5.472c-0.193-5.377-0.423-10.704-0.691-15.984c-0.269-5.28-0.615-10.187-1.037-14.717
		c-0.384,0.653-0.893,1.594-1.526,2.822c-0.634,1.229-1.316,2.62-2.045,4.177c-0.73,1.554-1.508,3.206-2.333,4.952
		c-0.826,1.748-1.604,3.447-2.333,5.098c-0.729,1.652-1.411,3.188-2.045,4.607c-0.633,1.423-1.143,2.593-1.526,3.515H461.935z"/>
	<path fill="#F2F2F2" d="M520.859,1123.2c-0.653-1.729-1.268-3.428-1.844-5.098c-0.576-1.671-1.172-3.37-1.785-5.098h-18.087
		l-3.628,10.195h-5.818c1.536-4.224,2.976-8.131,4.32-11.723c1.343-3.589,2.659-6.998,3.945-10.225
		c1.286-3.225,2.563-6.307,3.831-9.243c1.267-2.938,2.592-5.847,3.974-8.728h5.126c1.383,2.881,2.708,5.789,3.975,8.728
		c1.267,2.937,2.543,6.019,3.83,9.243c1.286,3.227,2.602,6.636,3.946,10.225c1.344,3.592,2.784,7.499,4.32,11.723H520.859z
		 M515.617,1108.396c-1.229-3.342-2.448-6.576-3.657-9.705c-1.209-3.13-2.468-6.136-3.773-9.016c-1.345,2.88-2.621,5.886-3.83,9.016
		c-1.21,3.129-2.411,6.363-3.6,9.705H515.617z"/>
	<path fill="#F2F2F2" d="M532.378,1083.282h5.588v39.918h-5.588V1083.282z"/>
	<path fill="#F2F2F2" d="M575.233,1123.2c-0.845-1.421-1.814-3.015-2.909-4.781c-1.094-1.767-2.275-3.601-3.542-5.501
		c-1.267-1.9-2.583-3.83-3.945-5.789c-1.363-1.958-2.717-3.849-4.061-5.674c-1.345-1.824-2.649-3.542-3.917-5.154
		s-2.439-3.033-3.514-4.264v31.163h-5.472v-39.918h4.436c1.804,1.921,3.734,4.157,5.789,6.712c2.054,2.553,4.09,5.183,6.105,7.89
		c2.016,2.708,3.917,5.367,5.702,7.978c1.786,2.613,3.292,4.936,4.522,6.97v-29.549h5.472v39.918H575.233z"/>
	<path fill="#F2F2F2" d="M620.275,1124.063c-2.804,0-5.357-0.46-7.661-1.383c-2.304-0.922-4.282-2.265-5.933-4.032
		c-1.652-1.765-2.93-3.944-3.83-6.537c-0.904-2.592-1.354-5.559-1.354-8.898c0-3.342,0.508-6.308,1.525-8.899
		c1.018-2.593,2.391-4.772,4.118-6.538c1.729-1.766,3.745-3.11,6.049-4.032c2.304-0.921,4.761-1.383,7.372-1.383
		c1.651,0,3.14,0.116,4.464,0.347c1.325,0.229,2.478,0.499,3.457,0.807c0.979,0.307,1.775,0.613,2.391,0.921
		c0.613,0.308,1.036,0.539,1.266,0.691l-1.612,4.607c-0.345-0.229-0.844-0.479-1.498-0.749c-0.652-0.268-1.392-0.537-2.217-0.806
		c-0.826-0.269-1.728-0.489-2.707-0.662c-0.979-0.174-1.969-0.261-2.967-0.261c-2.112,0-4.013,0.366-5.703,1.095
		c-1.689,0.731-3.129,1.786-4.319,3.169s-2.103,3.063-2.735,5.039c-0.634,1.979-0.951,4.196-0.951,6.654
		c0,2.381,0.279,4.55,0.836,6.508c0.557,1.959,1.391,3.639,2.506,5.039c1.113,1.404,2.506,2.487,4.176,3.256
		s3.619,1.152,5.847,1.152c2.571,0,4.704-0.269,6.394-0.808c1.688-0.537,2.955-1.017,3.802-1.439l1.438,4.608
		c-0.268,0.191-0.747,0.431-1.438,0.719c-0.691,0.289-1.557,0.567-2.593,0.836c-1.037,0.269-2.246,0.498-3.629,0.691
		C623.386,1123.967,621.889,1124.063,620.275,1124.063z"/>
	<path fill="#F2F2F2" d="M663.936,1083.282h5.587v39.918h-5.587v-18.433h-19.526v18.433h-5.587v-39.918h5.587v16.646h19.526
		V1083.282z"/>
	<path fill="#F2F2F2" d="M679.43,1123.2v-39.918h24.364v4.781h-18.776v11.865h16.703v4.667h-16.703v13.823h20.217v4.781H679.43z"/>
	<path fill="#F2F2F2" d="M727.87,1124.063c-2.803,0-5.356-0.46-7.66-1.383c-2.304-0.922-4.282-2.265-5.934-4.032
		c-1.651-1.765-2.927-3.944-3.829-6.537c-0.902-2.592-1.354-5.559-1.354-8.898c0-3.342,0.507-6.308,1.526-8.899
		c1.017-2.593,2.39-4.772,4.118-6.538c1.728-1.766,3.743-3.11,6.047-4.032c2.305-0.921,4.763-1.383,7.373-1.383
		c1.65,0,3.14,0.116,4.465,0.347c1.324,0.229,2.477,0.499,3.455,0.807c0.979,0.307,1.776,0.613,2.391,0.921s1.037,0.539,1.268,0.691
		l-1.612,4.607c-0.347-0.229-0.846-0.479-1.497-0.749c-0.654-0.268-1.393-0.537-2.219-0.806s-1.729-0.489-2.707-0.662
		c-0.979-0.174-1.968-0.261-2.966-0.261c-2.113,0-4.014,0.366-5.702,1.095c-1.69,0.731-3.132,1.786-4.321,3.169
		c-1.19,1.383-2.103,3.063-2.736,5.039c-0.633,1.979-0.949,4.196-0.949,6.654c0,2.381,0.278,4.55,0.835,6.508
		c0.557,1.959,1.392,3.639,2.505,5.039c1.113,1.404,2.506,2.487,4.177,3.256c1.67,0.769,3.619,1.152,5.846,1.152
		c2.573,0,4.703-0.269,6.394-0.808c1.689-0.537,2.958-1.017,3.802-1.439l1.441,4.608c-0.27,0.191-0.75,0.431-1.441,0.719
		c-0.69,0.289-1.555,0.567-2.592,0.836s-2.246,0.498-3.629,0.691C730.98,1123.967,729.482,1124.063,727.87,1124.063z"/>
	<path fill="#F2F2F2" d="M775.967,1083.282c-1.191,1.307-2.534,2.757-4.031,4.349c-1.498,1.594-3.063,3.226-4.695,4.896
		c-1.633,1.671-3.255,3.312-4.867,4.924c-1.613,1.614-3.131,3.111-4.551,4.493c1.651,1.153,3.398,2.573,5.242,4.264
		c1.843,1.689,3.646,3.494,5.414,5.414c1.766,1.921,3.428,3.879,4.982,5.876c1.555,1.996,2.852,3.897,3.889,5.702h-6.567
		c-1.151-1.805-2.477-3.619-3.974-5.444c-1.498-1.824-3.082-3.571-4.752-5.241c-1.672-1.671-3.361-3.216-5.07-4.637
		c-1.708-1.421-3.369-2.63-4.981-3.63v18.952h-5.587v-39.918h5.587v17.626c1.345-1.268,2.823-2.697,4.436-4.291
		s3.205-3.197,4.78-4.81c1.574-1.612,3.063-3.159,4.464-4.637s2.583-2.774,3.544-3.889H775.967z"/>
	<path fill="#F2F2F2" d="M782.648,1123.2v-39.918h24.364v4.781h-18.776v11.865h16.703v4.667h-16.703v13.823h20.217v4.781H782.648z"
		/>
	<path fill="#F2F2F2" d="M835.064,1106.496c0.613,0.769,1.391,1.776,2.332,3.023c0.94,1.248,1.91,2.631,2.908,4.147
		c0.998,1.518,1.987,3.102,2.967,4.752c0.98,1.651,1.814,3.246,2.506,4.781h-6.105c-0.769-1.46-1.604-2.939-2.506-4.436
		c-0.902-1.498-1.813-2.929-2.736-4.292c-0.922-1.362-1.834-2.64-2.736-3.83c-0.902-1.189-1.718-2.227-2.447-3.11
		c-0.5,0.038-1.008,0.059-1.527,0.059c-0.518,0-1.045,0-1.583,0h-5.011v15.609h-5.588v-39.343c1.574-0.382,3.332-0.642,5.27-0.776
		c1.939-0.135,3.717-0.202,5.329-0.202c5.606,0,9.878,1.057,12.816,3.168c2.937,2.113,4.406,5.262,4.406,9.447
		c0,2.648-0.702,4.915-2.103,6.797C839.854,1104.172,837.79,1105.574,835.064,1106.496z M826.596,1087.775
		c-2.381,0-4.204,0.058-5.471,0.172v15.034h3.974c1.919,0,3.647-0.095,5.185-0.287c1.535-0.192,2.831-0.557,3.888-1.095
		c1.055-0.537,1.872-1.296,2.447-2.275c0.576-0.979,0.864-2.275,0.864-3.889c0-1.497-0.288-2.744-0.864-3.742
		c-0.575-0.999-1.353-1.786-2.332-2.363c-0.979-0.576-2.131-0.979-3.456-1.209S828.094,1087.775,826.596,1087.775z"/>
</g>
<g id="Domain_Checker_1_">
	<g>
		<path fill-rule="evenodd" clip-rule="evenodd" fill="#3DD4E9" d="M822.353,589.503c128.579,0,233.495-104.917,233.495-233.496
			c0-128.648-104.916-233.564-233.495-233.564c-128.648,0-233.565,104.917-233.565,233.564
			C588.788,484.587,693.704,589.503,822.353,589.503L822.353,589.503z"/>
		<path fill-rule="evenodd" clip-rule="evenodd" fill="#7DC983" d="M1051.905,398.708c-3.945,21.419-10.811,41.815-20.194,60.719
			H845.879c-16.729,0-30.395-13.666-30.395-30.325l0,0c0-16.728,13.666-30.394,30.395-30.394H1051.905z M1033.546,256.257
			c14.279,30.258,22.302,64.052,22.302,99.75c0,3.808-0.068,7.548-0.273,11.288c-6.593,2.719-13.869,4.146-21.417,4.146H878.04
			c-31.687,0-57.591-25.906-57.591-57.591l0,0c0-31.687,25.904-57.593,57.591-57.593H1033.546z M604.29,439.844
			c-9.654-25.021-15.095-52.219-15.435-80.641h75.405c9.182,0,16.729,7.547,16.729,16.726l0,0c0,2.448-0.545,4.76-1.497,6.868
			h42.974c15.707,0,28.558,12.852,28.558,28.559l0,0c0,15.707-12.851,28.488-28.558,28.488H604.29z M620.949,237.696
			c8.975-15.231,19.584-29.376,31.687-42.158h89.754c11.628,0,21.077,9.451,21.077,21.079l0,0c0,11.559-9.449,21.079-21.077,21.079
			H620.949z"/>
		<path fill-rule="evenodd" clip-rule="evenodd" fill="#FFFFFF" d="M929.649,412.103c13.599,0,25.228-8.567,29.778-20.534
			c5.445-5.099,8.842-12.375,8.842-20.398l0,0c0-15.436-12.646-28.014-28.014-28.014h-19.311c3.196-5.712,5.03-12.308,5.03-19.312
			c0-21.69-17.543-39.233-39.231-39.233c-21.624,0-39.233,17.543-39.233,39.233c0,0.341,0.066,0.681,0.066,1.021
			c-2.311-0.748-4.689-1.156-7.204-1.156c-11.494,0-21.014,8.432-22.711,19.447h-14.486c-15.434,0-28.012,12.578-28.012,28.014l0,0
			c0,15.435,12.578,28.015,28.012,28.015h22.575c5.101,10.743,16.048,18.154,28.696,18.154c12.715,0,23.662-7.412,28.76-18.154
			h20.876C909.862,407.003,919.179,412.103,929.649,412.103L929.649,412.103z M972.556,177.179
			c13.189,11.152,25.159,23.662,35.628,37.398H903.947c-2.652,2.651-6.324,4.284-10.334,4.284c-1.634,0-3.133-0.273-4.558-0.749
			c0,0.272,0,0.476,0,0.68c0,13.736-11.152,24.887-24.886,24.887c-13.801,0-24.955-11.15-24.955-24.887
			c0-4.487,1.227-8.635,3.263-12.307h-12.305c-9.724,0-17.747-7.956-17.747-17.747l0,0c0-5.1,2.174-9.655,5.573-12.919
			c2.925-7.615,10.269-13.055,18.905-13.055c6.663,0,12.576,3.197,16.25,8.16h13.26c3.263-6.799,10.2-11.491,18.223-11.491
			c8.021,0,15.027,4.692,18.221,11.491h14.348c5.372,0,10.2,2.449,13.531,6.255H972.556z M640.329,243.882
			c4.214,0,8.157,0.952,11.761,2.583c2.993-1.426,6.528-2.38,10.199-2.583c-0.611-1.904-0.951-3.943-0.951-6.051
			c0-12.172,10.88-21.963,24.277-21.963c13.462,0,24.34,9.791,24.34,21.963c0,4.488-1.563,8.634-4.077,12.171
			c7.749,2.176,13.326,8.229,13.326,15.435c0,3.061-1.091,5.984-2.856,8.433c10.879,2.108,17.881,5.371,17.881,8.975
			c0,6.323-21.008,11.491-46.983,11.491c-10.743,0-20.603-0.883-28.559-2.379c-4.827,4.353-11.285,7.004-18.357,7.004
			c-15.229,0-27.538-12.308-27.538-27.539C612.791,256.19,625.1,243.882,640.329,243.882L640.329,243.882z"/>
	</g>
	<g>
		<g>
			<path fill-rule="evenodd" clip-rule="evenodd" fill="#FFFFFF" d="M267.305,374.026H929.58c10.676,0,19.38,8.771,19.38,19.377
				v436.26c0,10.605-8.704,19.309-19.38,19.309H267.305c-10.607,0-19.31-8.703-19.31-19.309v-436.26
				C247.995,382.797,256.698,374.026,267.305,374.026L267.305,374.026z"/>
			<g>
				<path fill-rule="evenodd" clip-rule="evenodd" fill="#43B8C9" d="M262.069,374.026h672.748c7.753,0,14.144,6.391,14.144,14.143
					v43.381c0,0.612-0.544,1.156-1.224,1.156H247.995v-44.537C247.995,380.417,254.318,374.026,262.069,374.026L262.069,374.026z"/>
				<path fill-rule="evenodd" clip-rule="evenodd" fill="#FFDB79" d="M282.604,415.571c7.072,0,12.851-5.78,12.851-12.851
					c0-7.072-5.779-12.852-12.851-12.852c-7.072,0-12.851,5.78-12.851,12.852C269.753,409.791,275.532,415.571,282.604,415.571
					L282.604,415.571z"/>
				<path fill-rule="evenodd" clip-rule="evenodd" fill="#9BDDE7" d="M318.574,415.571c7.072,0,12.918-5.78,12.918-12.851
					c0-7.072-5.846-12.852-12.918-12.852s-12.852,5.78-12.852,12.852C305.722,409.791,311.502,415.571,318.574,415.571
					L318.574,415.571z"/>
				<path fill-rule="evenodd" clip-rule="evenodd" fill="#F77B55" d="M354.544,415.571c7.07,0,12.851-5.78,12.851-12.851
					c0-7.072-5.78-12.852-12.851-12.852c-7.072,0-12.852,5.78-12.852,12.852C341.692,409.791,347.472,415.571,354.544,415.571
					L354.544,415.571z"/>
				<rect x="386.909" y="391.908" fill-rule="evenodd" clip-rule="evenodd" fill="#FFFFFF" width="542.059" height="24.411"/>
			</g>
		</g>
		<g>
			<path fill-rule="evenodd" clip-rule="evenodd" fill="#FFD45B" d="M325.917,507.976h552.873c9.723,0,17.679,7.958,17.679,17.679
				v34.951c0,9.724-7.956,17.679-17.679,17.679H325.917c-9.792,0-17.746-7.955-17.746-17.679v-34.951
				C308.17,515.934,316.125,507.976,325.917,507.976L325.917,507.976z"/>
			<rect x="527.592" y="466.229" fill-rule="evenodd" clip-rule="evenodd" fill="#CCCCCC" width="149.25" height="10.812"/>
			<rect x="345.16" y="466.229" fill-rule="evenodd" clip-rule="evenodd" fill="#CCCCCC" width="149.318" height="10.812"/>
			<rect x="715.124" y="466.229" fill-rule="evenodd" clip-rule="evenodd" fill="#CCCCCC" width="149.25" height="10.812"/>
			<path fill-rule="evenodd" clip-rule="evenodd" fill="#6C6D70" d="M361.751,559.041l-7.888-26.042h4.624l4.148,15.027l1.496,5.575
				c0.068-0.271,0.476-2.038,1.36-5.372l4.079-15.231h4.558l3.875,15.095l1.292,4.964l1.496-5.032l4.488-15.027h4.283l-8.159,26.042
				h-4.556l-4.148-15.571l-1.02-4.486l-5.235,20.057H361.751z M397.993,559.041l-7.888-26.042h4.623l4.148,15.027l1.428,5.575
				c0.067-0.271,0.543-2.038,1.359-5.372l4.148-15.231h4.487l3.945,15.095l1.291,4.964l1.497-5.032l4.486-15.027h4.285
				l-8.161,26.042h-4.554l-4.148-15.571l-1.02-4.486l-5.304,20.057H397.993z M434.166,559.041l-7.82-26.042h4.557l4.147,15.027
				l1.496,5.575c0.066-0.271,0.545-2.038,1.359-5.372l4.149-15.231h4.486l3.945,15.095l1.223,4.964l1.496-5.032l4.556-15.027h4.283
				l-8.159,26.042h-4.625l-4.079-15.571l-1.088-4.486l-5.235,20.057H434.166z M464.22,559.041v-5.031h5.032v5.031H464.22z"/>
			<path fill-rule="evenodd" clip-rule="evenodd" fill="#ADECF7" d="M374.669,724.405c28.355,0,51.473-23.119,51.473-51.472
				c0-28.354-23.117-51.472-51.473-51.472c-28.354,0-51.471,23.117-51.471,51.472C323.198,701.286,346.315,724.405,374.669,724.405
				L374.669,724.405z"/>
			<polygon fill-rule="evenodd" clip-rule="evenodd" fill="#F26D6E" points="346.112,661.988 372.902,707.612 436.07,604.054 
				374.466,674.701 			"/>
			<rect x="474.011" y="647.911" fill-rule="evenodd" clip-rule="evenodd" fill="#A6A9AB" width="242.609" height="7.684"/>
			<rect x="571.041" y="669.808" fill-rule="evenodd" clip-rule="evenodd" fill="#A6A9AB" width="145.58" height="7.682"/>
			<rect x="471.086" y="691.633" fill-rule="evenodd" clip-rule="evenodd" fill="#A6A9AB" width="159.383" height="7.752"/>
			<rect x="670.994" y="691.633" fill-rule="evenodd" clip-rule="evenodd" fill="#A6A9AB" width="45.626" height="7.752"/>
			<rect x="499.782" y="669.808" fill-rule="evenodd" clip-rule="evenodd" fill="#A6A9AB" width="25.702" height="7.682"/>
		</g>
	</g>
	<g>
		<path fill-rule="evenodd" clip-rule="evenodd" fill="#E62C34" d="M771.9,625.064h214.457c13.733,0,24.954,11.221,24.954,24.955
			v197.596c0,13.734-11.221,24.953-24.954,24.953H771.9c-13.669,0-24.887-11.219-24.887-24.953V650.02
			C747.014,636.285,758.231,625.064,771.9,625.064L771.9,625.064z"/>
		<rect x="747.014" y="709.106" fill-rule="evenodd" clip-rule="evenodd" fill="#08C6A2" width="264.298" height="79.419"/>
		<path fill-rule="evenodd" clip-rule="evenodd" fill="#FEFEFE" d="M869.134,833.131c0,3.876,0.813,6.733,2.515,8.637
			c1.701,1.971,3.807,2.924,6.392,2.924c2.515,0,4.692-0.953,6.322-2.924c1.703-1.903,2.585-4.828,2.585-8.773
			c0-3.736-0.882-6.593-2.585-8.496c-1.699-1.907-3.808-2.856-6.322-2.856c-2.585,0-4.69,0.949-6.392,2.856
			C869.947,826.401,869.134,829.258,869.134,833.131L869.134,833.131z M863.896,833.131c0-5.574,1.563-9.724,4.625-12.377
			c2.585-2.242,5.779-3.398,9.519-3.398c4.148,0,7.548,1.362,10.199,4.082c2.583,2.72,3.944,6.459,3.944,11.287
			c0,3.876-0.611,6.866-1.769,9.111c-1.155,2.244-2.855,3.94-5.099,5.167c-2.178,1.223-4.624,1.834-7.276,1.834
			c-4.214,0-7.617-1.29-10.267-4.01C865.189,842.107,863.896,838.23,863.896,833.131L863.896,833.131z M850.844,848.226V821.98
			h-4.558v-3.946h4.558v-3.193c0-2.04,0.203-3.535,0.545-4.556c0.473-1.291,1.357-2.381,2.582-3.197
			c1.222-0.813,2.991-1.224,5.235-1.224c1.43,0,2.991,0.14,4.76,0.478l-0.749,4.485c-1.087-0.136-2.106-0.271-3.061-0.271
			c-1.561,0-2.649,0.34-3.263,1.021c-0.681,0.61-0.95,1.903-0.95,3.669v2.788h5.846v3.946h-5.777v26.245H850.844z M817.252,848.226
			v-30.191h4.624v4.287c2.176-3.332,5.37-4.966,9.588-4.966c1.835,0,3.467,0.342,5.032,1.02c1.496,0.614,2.65,1.497,3.398,2.584
			c0.749,1.021,1.293,2.313,1.563,3.741c0.204,0.95,0.341,2.584,0.341,4.964v18.562h-5.168v-18.357c0-2.108-0.203-3.674-0.544-4.691
			c-0.407-1.02-1.156-1.836-2.176-2.449c-0.953-0.611-2.177-0.95-3.536-0.95c-2.174,0-4.012,0.68-5.645,2.107
			c-1.563,1.359-2.309,4.012-2.309,7.887v16.454H817.252z M804.333,848.226v-30.191h5.099v30.191H804.333z M804.333,812.392v-5.847
			h5.099v5.847H804.333z M789.648,848.226v-5.847h5.778v5.847H789.648z"/>
		<path fill-rule="evenodd" clip-rule="evenodd" fill="#FEFEFE" d="M880.214,761.737l0.684,4.556
			c-1.429,0.271-2.724,0.475-3.877,0.475c-1.837,0-3.264-0.34-4.285-0.884c-1.019-0.613-1.765-1.36-2.175-2.312
			c-0.408-1.021-0.613-2.991-0.613-6.053v-17.404h-3.805v-4.015h3.805v-7.411l5.102-3.127v10.538h5.165v4.015h-5.165v17.678
			c0,1.426,0.135,2.381,0.271,2.788c0.201,0.407,0.477,0.746,0.885,1.02c0.409,0.271,1.019,0.34,1.768,0.34
			C878.518,761.94,879.265,761.872,880.214,761.737L880.214,761.737z M840.575,748.342h16.794c-0.205-2.516-0.882-4.42-1.901-5.711
			c-1.634-1.972-3.741-2.927-6.326-2.927c-2.381,0-4.353,0.751-5.914,2.313C841.595,743.58,840.711,745.689,840.575,748.342
			L840.575,748.342z M857.301,756.568l5.304,0.679c-0.815,3.063-2.379,5.509-4.621,7.14c-2.245,1.701-5.101,2.583-8.637,2.583
			c-4.421,0-7.889-1.356-10.472-4.077c-2.583-2.719-3.878-6.528-3.878-11.426c0-5.03,1.295-8.972,3.947-11.763
			c2.583-2.787,5.981-4.213,10.13-4.213c4.014,0,7.344,1.356,9.858,4.077c2.585,2.787,3.876,6.665,3.876,11.628
			c0,0.271-0.069,0.748-0.069,1.358h-22.504c0.206,3.266,1.155,5.849,2.857,7.619c1.63,1.698,3.737,2.582,6.254,2.582
			c1.904,0,3.468-0.477,4.827-1.429C855.468,760.311,856.553,758.743,857.301,756.568L857.301,756.568z M804.333,766.36v-30.26
			h4.623v4.285c2.177-3.266,5.373-4.895,9.588-4.895c1.838,0,3.468,0.34,5.032,0.95c1.496,0.679,2.652,1.564,3.399,2.584
			c0.75,1.09,1.292,2.313,1.563,3.809c0.206,0.95,0.271,2.584,0.271,4.964v18.563h-5.1v-18.358c0-2.108-0.203-3.675-0.609-4.692
			c-0.34-1.022-1.09-1.835-2.109-2.449c-1.019-0.61-2.178-0.949-3.537-0.949c-2.174,0-4.08,0.68-5.644,2.106
			c-1.561,1.36-2.38,3.944-2.38,7.818v16.524H804.333z M789.648,766.36v-5.848h5.778v5.848H789.648z"/>
		<path fill-rule="evenodd" clip-rule="evenodd" fill="#FEFEFE" d="M865.8,682.589v-30.19h4.623v4.286
			c0.886-1.497,2.178-2.72,3.742-3.606c1.565-0.883,3.33-1.358,5.37-1.358c2.244,0,4.082,0.476,5.507,1.427
			c1.43,0.887,2.449,2.177,2.993,3.876c2.38-3.536,5.512-5.303,9.383-5.303c2.993,0,5.305,0.815,6.937,2.516
			c1.63,1.629,2.448,4.214,2.448,7.616v20.737h-5.167v-19.038c0-2.038-0.137-3.469-0.477-4.419
			c-0.343-0.885-0.952-1.564-1.837-2.109c-0.885-0.61-1.904-0.883-3.057-0.883c-2.109,0-3.877,0.748-5.306,2.107
			c-1.429,1.427-2.108,3.741-2.108,6.802v17.54h-5.099v-19.581c0-2.314-0.411-4.014-1.294-5.17
			c-0.815-1.085-2.177-1.698-4.078-1.698c-1.428,0-2.79,0.408-4.011,1.155c-1.228,0.747-2.109,1.837-2.653,3.331
			c-0.544,1.429-0.814,3.538-0.814,6.325v15.638H865.8z M836.767,667.494c0,3.877,0.818,6.733,2.515,8.636
			c1.703,1.97,3.812,2.925,6.395,2.925c2.516,0,4.693-0.955,6.322-2.925c1.7-1.902,2.582-4.828,2.582-8.771
			c0-3.741-0.882-6.597-2.582-8.499c-1.698-1.905-3.807-2.857-6.322-2.857c-2.583,0-4.691,0.952-6.395,2.857
			C837.585,660.762,836.767,663.617,836.767,667.494L836.767,667.494z M831.531,667.494c0-5.574,1.564-9.723,4.624-12.376
			c2.583-2.243,5.779-3.398,9.521-3.398c4.145,0,7.548,1.358,10.198,4.078c2.584,2.72,3.942,6.462,3.942,11.29
			c0,3.873-0.61,6.867-1.765,9.108c-1.158,2.244-2.859,3.944-5.101,5.168c-2.244,1.225-4.624,1.837-7.275,1.837
			c-4.218,0-7.617-1.291-10.268-4.011C832.826,676.471,831.531,672.593,831.531,667.494L831.531,667.494z M824.052,671.508
			l5.032,0.748c-0.545,3.398-1.974,6.118-4.215,8.021c-2.243,1.972-5.031,2.924-8.365,2.924c-4.078,0-7.411-1.291-9.927-4.011
			c-2.519-2.72-3.739-6.598-3.739-11.56c0-3.264,0.545-6.118,1.631-8.567c1.021-2.448,2.721-4.284,4.895-5.508
			c2.177-1.225,4.626-1.836,7.209-1.836c3.266,0,5.985,0.815,8.023,2.516c2.109,1.629,3.4,4.012,4.013,7.072l-4.966,0.747
			c-0.475-2.041-1.29-3.537-2.515-4.556c-1.222-1.02-2.653-1.565-4.354-1.565c-2.583,0-4.692,0.954-6.321,2.791
			c-1.565,1.833-2.38,4.757-2.38,8.703c0,4.08,0.747,7.003,2.313,8.837c1.563,1.835,3.604,2.79,6.118,2.79
			c1.971,0,3.673-0.614,5.033-1.836C822.828,675.994,823.711,674.091,824.052,671.508L824.052,671.508z M789.648,682.589v-5.848
			h5.778v5.848H789.648z"/>
	</g>
	<g>
		<g>
			<path fill-rule="evenodd" clip-rule="evenodd" fill="#E6E6E6" d="M512.361,888.819c6.935,3.128,13.123,7.548,18.154,13.055
				l20.807-9.449l14.619,32.228l-20.807,9.384c0.408,3.671,0.408,7.479,0.068,11.287c-0.409,3.809-1.156,7.48-2.245,11.016
				l18.564,13.328l-20.604,28.692l-18.563-13.259c-5.983,4.354-12.918,7.548-20.33,9.248l-2.244,22.711l-35.222-3.469l2.244-22.642
				c-6.935-3.129-13.123-7.616-18.222-13.056l-20.74,9.384l-14.618-32.163l20.738-9.448c-0.34-3.674-0.408-7.412,0-11.221
				c0.339-3.808,1.156-7.549,2.176-11.084l-18.496-13.258l20.535-28.764l18.563,13.327c6.052-4.418,12.987-7.616,20.398-9.315
				l2.244-22.71l35.153,3.468L512.361,888.819z"/>
			<path fill-rule="evenodd" clip-rule="evenodd" fill="#363F48" d="M491.282,922.271c9.724,0.956,16.863,9.588,15.912,19.313
				c-0.952,9.725-9.655,16.863-19.311,15.911c-9.724-0.951-16.863-9.656-15.912-19.379
				C472.924,928.461,481.559,921.322,491.282,922.271L491.282,922.271z M492.982,905.274c19.107,1.837,33.113,18.902,31.209,38.01
				c-1.902,19.105-18.902,33.047-38.009,31.211c-19.107-1.904-33.114-18.903-31.21-38.01
				C456.809,917.378,473.876,903.371,492.982,905.274L492.982,905.274z"/>
		</g>
		<g>
			<path fill-rule="evenodd" clip-rule="evenodd" fill="#E6E6E6" d="M384.665,897.456c2.924,4.964,4.761,10.402,5.508,15.979
				l16.999,3.33l-5.168,26.247l-16.931-3.264c-1.36,2.447-3.06,4.761-4.964,6.936c-1.904,2.177-3.943,4.148-6.188,5.847
				l5.643,16.322l-25.362,8.701l-5.575-16.317c-5.644,0-11.355-1.021-16.658-3.266l-11.356,13.057l-20.126-17.611l11.287-12.988
				c-2.922-5.032-4.76-10.473-5.506-16.047l-16.933-3.33l5.101-26.247l16.999,3.264c1.36-2.38,2.992-4.759,4.896-6.937
				c1.905-2.176,4.013-4.148,6.188-5.848l-5.575-16.318l25.295-8.703l5.644,16.385c5.644-0.066,11.287,1.023,16.59,3.198
				l11.356-12.989L396.02,884.4L384.665,897.456z"/>
			<path fill-rule="evenodd" clip-rule="evenodd" fill="#363F48" d="M356.991,908.812c5.576,4.895,6.188,13.325,1.361,18.899
				c-4.896,5.578-13.328,6.122-18.903,1.294s-6.188-13.325-1.292-18.901C342.983,904.525,351.415,903.983,356.991,908.812
				L356.991,908.812z M365.49,899.086c11.015,9.521,12.172,26.18,2.583,37.127c-9.519,10.947-26.177,12.104-37.125,2.583
				c-10.949-9.587-12.104-26.176-2.584-37.191C337.953,890.658,354.544,889.498,365.49,899.086L365.49,899.086z"/>
		</g>
	</g>
	<g>
		<polygon fill-rule="evenodd" clip-rule="evenodd" fill="#FEFEFE" points="979.762,755.82 1012.739,773.771 1045.718,791.791 
			1017.634,799.746 1039.801,836.055 1023.756,845.913 1001.586,809.538 981.666,830.887 980.714,793.354 		"/>
		<path fill="#FEFEFE" d="M209.033,530.891c-2.856,0.204-5.305-2.041-5.508-4.894c-0.136-2.857,2.039-5.373,4.963-5.509h0.34
			l0.408-0.067h0.407h0.41h0.339h0.407h0.408l0.409-0.068h0.407h10.404c2.924,0,5.235,2.38,5.235,5.234
			c0,2.926-2.312,5.236-5.235,5.236h-10.404h-0.34h-0.339h-0.34h-0.341l-0.271,0.067h-0.339h-0.34h-0.341H209.033z M176.53,531.708
			c2.313-1.701,5.577-1.157,7.276,1.223c1.699,2.312,1.156,5.576-1.223,7.276l-0.137,0.068l-0.272,0.204l-0.272,0.203l-0.205,0.137
			l-0.271,0.203l-0.272,0.206l-0.203,0.202l-0.272,0.137l-0.204,0.205l-0.272,0.203l-0.205,0.205l-0.271,0.202l-0.204,0.206
			l-0.272,0.204l-0.205,0.135l-0.271,0.204l-0.204,0.205l-0.271,0.204l-0.204,0.203l-0.205,0.205l-0.272,0.206l-0.203,0.202
			l-0.204,0.272l-0.271,0.206l-0.204,0.204l-0.205,0.204l-0.272,0.205l-0.204,0.204l-0.204,0.203l-0.204,0.272l-0.204,0.204h-0.069
			c-1.972,2.108-5.304,2.176-7.343,0.136c-2.109-1.973-2.176-5.304-0.136-7.342l0.068-0.136l0.271-0.206l0.204-0.271l0.272-0.271
			l0.272-0.272l0.271-0.271l0.272-0.205l0.272-0.274l0.271-0.272l0.272-0.271l0.272-0.202l0.271-0.271l0.272-0.274l0.271-0.204
			l0.272-0.272l0.272-0.204l0.271-0.271l0.339-0.205l0.274-0.271l0.271-0.206l0.272-0.272l0.272-0.201l0.34-0.275l0.273-0.204
			l0.272-0.204l0.339-0.271l0.271-0.204l0.273-0.203l0.34-0.203l0.271-0.207l0.34-0.272L176.53,531.708z M151.781,568.833
			c0.611-2.855,3.4-4.625,6.255-4.011c2.787,0.611,4.555,3.399,3.944,6.255v0.068l-0.068,0.271l-0.068,0.339l-0.068,0.272
			l-0.066,0.342l-0.069,0.339v0.271l-0.068,0.34l-0.068,0.34l-0.069,0.272l-0.068,0.339v0.34l-0.068,0.274l-0.068,0.34v0.34
			l-0.068,0.271v0.34l-0.068,0.34v0.272l-0.068,0.339v0.342l-0.067,0.34v0.271v0.339l-0.068,0.339v0.34v0.273v0.339l-0.069,0.341
			v0.341l0,0c-0.067,2.923-2.447,5.168-5.371,5.099c-2.856-0.067-5.168-2.447-5.031-5.37v-0.069v-0.409v-0.407v-0.341l0.067-0.408
			v-0.407v-0.408l0.068-0.342v-0.408l0.067-0.407v-0.408l0.068-0.339v-0.408l0.068-0.407l0.068-0.342v-0.408l0.068-0.408
			l0.067-0.339l0.068-0.408l0.069-0.408V572.3l0.068-0.408l0.068-0.34l0.068-0.407l0.069-0.34l0.068-0.408l0.135-0.407l0.068-0.343
			l0.069-0.407l0.068-0.34V568.833z M150.353,611.603c0-2.855,2.38-5.168,5.236-5.168c2.854,0,5.234,2.313,5.234,5.168v10.47
			c0,2.924-2.38,5.237-5.234,5.237c-2.856,0-5.236-2.313-5.236-5.237V611.603z M150.353,653.418c0-2.855,2.38-5.235,5.236-5.235
			c2.854,0,5.234,2.38,5.234,5.235v10.474c0,2.856-2.38,5.236-5.234,5.236c-2.856,0-5.236-2.38-5.236-5.236V653.418z
			 M150.353,695.236c0-2.922,2.38-5.235,5.236-5.235c2.854,0,5.234,2.313,5.234,5.235v10.403c0,2.924-2.38,5.236-5.234,5.236
			c-2.856,0-5.236-2.313-5.236-5.236V695.236z M150.353,736.985c0-2.857,2.38-5.167,5.236-5.167c2.854,0,5.234,2.31,5.234,5.167
			v10.471c0,2.858-2.38,5.238-5.234,5.238c-2.856,0-5.236-2.38-5.236-5.238V736.985z M150.353,778.804
			c0-2.856,2.38-5.236,5.236-5.236c2.854,0,5.234,2.38,5.234,5.236v10.471c0,2.854-2.38,5.235-5.234,5.235
			c-2.856,0-5.236-2.381-5.236-5.235V778.804z M150.353,820.619c0-2.922,2.38-5.235,5.236-5.235c2.854,0,5.234,2.313,5.234,5.235
			v10.403c0,2.926-2.38,5.237-5.234,5.237c-2.856,0-5.236-2.312-5.236-5.237V820.619z M150.353,862.37
			c0-2.857,2.38-5.167,5.236-5.167c2.854,0,5.234,2.31,5.234,5.167v10.473c0,2.854-2.38,5.232-5.234,5.232
			c-2.856,0-5.236-2.378-5.236-5.232V862.37z M153.208,905.548c-0.885-2.788,0.613-5.714,3.333-6.598
			c2.788-0.883,5.711,0.614,6.595,3.399l0.068,0.275l0.136,0.27l0.069,0.271l0.067,0.342l0.136,0.27l0.068,0.272l0.136,0.341
			l0.136,0.272l0.069,0.271l0.135,0.34l0.137,0.273l0.068,0.27l0.136,0.274l0.135,0.34l0.068,0.271l0.137,0.271l0.135,0.272
			l0.136,0.342l0.136,0.271l0.069,0.273l0.136,0.271l0.135,0.271l0.136,0.272l0.136,0.34l0.135,0.271l0.136,0.274l0.136,0.272
			l0.136,0.272l0.204,0.271l0.136,0.271l0.068,0.138c1.36,2.584,0.407,5.71-2.109,7.072c-2.584,1.359-5.71,0.407-7.07-2.109
			l-0.138-0.203l-0.203-0.34l-0.137-0.341l-0.203-0.341l-0.137-0.339l-0.203-0.341l-0.137-0.339l-0.136-0.34l-0.205-0.34
			l-0.135-0.34l-0.136-0.343l-0.204-0.34l-0.136-0.338l-0.136-0.342l-0.135-0.338l-0.137-0.34l-0.205-0.339l-0.136-0.344
			l-0.136-0.339l-0.135-0.341l-0.136-0.406l-0.136-0.34l-0.136-0.339l-0.067-0.341l-0.136-0.339l-0.137-0.411l-0.136-0.34
			l-0.135-0.34l-0.137-0.338l-0.067-0.407L153.208,905.548z M181.019,940.359c-2.515-1.426-3.332-4.623-1.904-7.138
			c1.497-2.515,4.692-3.334,7.208-1.904v0.069l0.272,0.135l0.272,0.135l0.271,0.137l0.272,0.203l0.272,0.137l0.272,0.136
			l0.272,0.138l0.272,0.132l0.271,0.138l0.272,0.137l0.271,0.137l0.272,0.137l0.272,0.136l0.271,0.136l0.341,0.137l0.272,0.134
			l0.272,0.138l0.271,0.137l0.272,0.134l0.272,0.137l0.34,0.136l0.272,0.067l0.271,0.136l0.271,0.136l0.341,0.138l0.271,0.067
			l0.271,0.136l0.273,0.137l0.34,0.066l0.272,0.136h0.068c2.72,0.955,4.147,3.944,3.195,6.665c-0.951,2.72-3.943,4.149-6.663,3.196
			l-0.137-0.069l-0.34-0.136l-0.408-0.136l-0.341-0.136l-0.338-0.136l-0.34-0.135l-0.34-0.138l-0.341-0.135l-0.339-0.137
			l-0.409-0.138l-0.339-0.132l-0.34-0.138l-0.34-0.203l-0.34-0.138l-0.34-0.136l-0.34-0.137l-0.34-0.205l-0.34-0.135l-0.34-0.204
			l-0.34-0.136l-0.271-0.204l-0.341-0.136l-0.339-0.137l-0.339-0.202l-0.34-0.205l-0.341-0.136l-0.339-0.204l-0.272-0.203
			l-0.342-0.136l-0.34-0.204L181.019,940.359L181.019,940.359z M224.06,948.792c-2.855,0-5.235-2.38-5.235-5.235
			c0-2.923,2.379-5.235,5.235-5.235h10.471c2.855,0,5.235,2.313,5.235,5.235c0,2.855-2.38,5.235-5.235,5.235H224.06z
			 M265.877,948.792c-2.925,0-5.236-2.38-5.236-5.235c0-2.923,2.311-5.235,5.236-5.235h10.471c2.855,0,5.168,2.313,5.168,5.235
			c0,2.855-2.313,5.235-5.168,5.235H265.877z M564.445,948.792c-2.856,0-5.236-2.38-5.236-5.235c0-2.923,2.379-5.235,5.236-5.235
			h5.916c2.924,0,5.235,2.313,5.235,5.235c0,2.855-2.312,5.235-5.235,5.235H564.445z M600.211,948.792
			c-2.856,0-5.235-2.38-5.235-5.235c0-2.923,2.379-5.235,5.235-5.235h10.471c2.855,0,5.234,2.313,5.234,5.235
			c0,2.855-2.379,5.235-5.234,5.235H600.211z M642.027,948.792c-2.924,0-5.235-2.38-5.235-5.235c0-2.923,2.312-5.235,5.235-5.235
			h10.404c2.924,0,5.235,2.313,5.235,5.235c0,2.855-2.312,5.235-5.235,5.235H642.027z M683.777,948.792
			c-2.854,0-5.168-2.38-5.168-5.235c0-2.923,2.313-5.235,5.168-5.235h10.471c2.923,0,5.234,2.313,5.234,5.235
			c0,2.855-2.312,5.235-5.234,5.235H683.777z M725.592,948.792c-2.854,0-5.233-2.38-5.233-5.235c0-2.923,2.379-5.235,5.233-5.235
			h10.476c2.854,0,5.236,2.313,5.236,5.235c0,2.855-2.382,5.235-5.236,5.235H725.592z M767.412,948.792
			c-2.923,0-5.236-2.38-5.236-5.235c0-2.923,2.313-5.235,5.236-5.235h10.403c2.923,0,5.235,2.313,5.235,5.235
			c0,2.855-2.313,5.235-5.235,5.235H767.412z M809.162,948.792c-2.857,0-5.169-2.38-5.169-5.235c0-2.923,2.312-5.235,5.169-5.235
			h10.469c2.859,0,5.238,2.313,5.238,5.235c0,2.855-2.379,5.235-5.238,5.235H809.162z M850.979,948.792
			c-2.855,0-5.234-2.38-5.234-5.235c0-2.923,2.379-5.235,5.234-5.235h10.472c2.855,0,5.235,2.313,5.235,5.235
			c0,2.855-2.38,5.235-5.235,5.235H850.979z M892.795,948.792c-2.924,0-5.235-2.38-5.235-5.235c0-2.923,2.312-5.235,5.235-5.235
			h10.403c2.924,0,5.234,2.313,5.234,5.235c0,2.855-2.311,5.235-5.234,5.235H892.795z M934.546,948.792
			c-2.856,0-5.168-2.38-5.168-5.235c0-2.923,2.312-5.235,5.168-5.235h10.471c2.855,0,5.234,2.313,5.234,5.235
			c0,2.855-2.379,5.235-5.234,5.235H934.546z M976.36,948.792c-2.855,0-5.234-2.38-5.234-5.235c0-2.923,2.379-5.235,5.234-5.235
			h10.472c2.856,0,5.235,2.313,5.235,5.235c0,2.855-2.379,5.235-5.235,5.235H976.36z M1019.198,947.365
			c-2.854,0.609-5.642-1.156-6.255-4.013c-0.613-2.787,1.156-5.577,4.012-6.188l0,0l0.34-0.069l0.339-0.065l0.273-0.068l0.341-0.136
			l0.271-0.069l0.341-0.068l0.272-0.066l0.339-0.068l0.272-0.067l0.271-0.136l0.34-0.067l0.273-0.069l0.341-0.136l0.271-0.067
			l0.342-0.067l0.271-0.137l0.271-0.069l0.341-0.135l0.27-0.066l0.275-0.14l0.339-0.068l0.273-0.136l0.27-0.066l0.34-0.137
			l0.274-0.136l0.27-0.067l0.272-0.138l0.34-0.136l0.274-0.136l0.271-0.067l0,0c2.653-1.155,5.712,0.067,6.868,2.721
			c1.156,2.65-0.068,5.709-2.721,6.865h-0.068l-0.34,0.138l-0.34,0.137l-0.34,0.135l-0.34,0.138l-0.34,0.135l-0.341,0.136
			l-0.407,0.136l-0.339,0.136l-0.341,0.136l-0.339,0.137l-0.408,0.135l-0.34,0.136l-0.343,0.14l-0.338,0.067l-0.41,0.136
			l-0.339,0.135l-0.34,0.068l-0.406,0.137l-0.341,0.137l-0.342,0.066l-0.407,0.137l-0.341,0.066l-0.339,0.137l-0.407,0.068
			l-0.34,0.068l-0.407,0.135l-0.343,0.068l-0.407,0.068l-0.34,0.136L1019.198,947.365L1019.198,947.365z M1056.395,922.682
			c-1.702,2.31-4.966,2.925-7.277,1.225c-2.379-1.635-2.921-4.896-1.292-7.277l0.135-0.203l0.205-0.203l0.202-0.272l0.139-0.271
			l0.204-0.273l0.137-0.203l0.203-0.273l0.136-0.271l0.203-0.272l0.137-0.272l0.136-0.27l0.203-0.273l0.136-0.204l0.137-0.271
			l0.204-0.271l0.136-0.274l0.137-0.273l0.135-0.271l0.207-0.271l0.134-0.272l0.137-0.271l0.136-0.273l0.137-0.271l0.136-0.271
			l0.205-0.272l0.132-0.272l0.138-0.274l0.137-0.271l0.136-0.34l0.067-0.272l0.136-0.203c1.225-2.653,4.354-3.808,6.938-2.584
			c2.649,1.225,3.738,4.354,2.583,6.938l-0.136,0.271l-0.204,0.34l-0.136,0.34l-0.204,0.339l-0.136,0.341l-0.135,0.339l-0.208,0.341
			l-0.135,0.341l-0.204,0.34l-0.203,0.339l-0.138,0.272l-0.201,0.339l-0.204,0.34l-0.137,0.34l-0.203,0.344l-0.206,0.271
			l-0.134,0.341l-0.204,0.338l-0.205,0.272l-0.206,0.34l-0.203,0.339l-0.205,0.273l-0.201,0.341l-0.205,0.339l-0.205,0.271
			l-0.201,0.34l-0.204,0.273l-0.204,0.34l-0.205,0.271l-0.203,0.34L1056.395,922.682z M1067.747,880.05
			c0,2.854-2.379,5.233-5.235,5.233c-2.924,0-5.234-2.379-5.234-5.233v-10.472c0-2.858,2.311-5.238,5.234-5.238
			c2.856,0,5.235,2.38,5.235,5.238V880.05z M1067.747,838.23c0,2.923-2.379,5.236-5.235,5.236c-2.924,0-5.234-2.313-5.234-5.236
			v-10.402c0-2.924,2.311-5.237,5.234-5.237c2.856,0,5.235,2.313,5.235,5.237V838.23z M1067.747,796.482
			c0,2.854-2.379,5.167-5.235,5.167c-2.924,0-5.234-2.313-5.234-5.167v-10.472c0-2.924,2.311-5.233,5.234-5.233
			c2.856,0,5.235,2.31,5.235,5.233V796.482z M1067.747,754.663c0,2.856-2.379,5.237-5.235,5.237c-2.924,0-5.234-2.381-5.234-5.237
			v-10.469c0-2.856,2.311-5.237,5.234-5.237c2.856,0,5.235,2.381,5.235,5.237V754.663z M1067.747,712.847
			c0,2.925-2.379,5.236-5.235,5.236c-2.924,0-5.234-2.312-5.234-5.236v-10.4c0-2.925,2.311-5.237,5.234-5.237
			c2.856,0,5.235,2.313,5.235,5.237V712.847z M1067.747,671.098c0,2.857-2.379,5.167-5.235,5.167c-2.924,0-5.234-2.31-5.234-5.167
			v-10.472c0-2.854,2.311-5.235,5.234-5.235c2.856,0,5.235,2.381,5.235,5.235V671.098z M1067.747,629.28
			c0,2.856-2.379,5.237-5.235,5.237c-2.924,0-5.234-2.381-5.234-5.237V618.81c0-2.854,2.311-5.234,5.234-5.234
			c2.856,0,5.235,2.38,5.235,5.234V629.28z M1067.747,587.463c0,2.925-2.379,5.237-5.235,5.237c-2.924,0-5.234-2.312-5.234-5.237
			v-5.44v-0.339v-0.34v-0.339v-0.272v-0.338l-0.069-0.341v-0.341v-0.339V579.1l-0.066-0.34v-0.339v-0.339l-0.069-0.271v-0.271
			c-0.271-2.926,1.836-5.443,4.76-5.714c2.856-0.272,5.372,1.905,5.645,4.759l0.066,0.34v0.408v0.342l0.068,0.408v0.407l0.068,0.408
			v0.341v0.407v0.409v0.407l0.067,0.409v0.338v0.409v0.407V587.463z M1055.305,545.035c1.768,2.312,1.292,5.575-1.02,7.273
			c-2.314,1.771-5.575,1.293-7.275-0.95l-0.137-0.137l-0.203-0.271l-0.138-0.204l-0.202-0.272l-0.203-0.203l-0.205-0.272
			l-0.204-0.207l-0.137-0.271l-0.204-0.272l-0.205-0.201l-0.203-0.207l-0.203-0.272l-0.204-0.203l-0.204-0.272l-0.203-0.204
			l-0.205-0.203l-0.203-0.274l-0.203-0.201l-0.206-0.207l-0.272-0.272l-0.203-0.203l-0.204-0.205l-0.205-0.204l-0.203-0.272
			l-0.204-0.203l-0.272-0.204l-0.202-0.205l-0.203-0.204l-0.205-0.204l-0.272-0.206l-0.206-0.272h-0.066
			c-2.106-1.973-2.312-5.304-0.339-7.412c1.903-2.105,5.233-2.309,7.343-0.337l0.137,0.065l0.27,0.271l0.273,0.272l0.273,0.274
			l0.272,0.205l0.271,0.271l0.271,0.272l0.205,0.271l0.271,0.271l0.272,0.206l0.271,0.272l0.271,0.271l0.204,0.272l0.274,0.271
			l0.271,0.272l0.205,0.271l0.271,0.272l0.272,0.271l0.203,0.271l0.271,0.271l0.205,0.343l0.271,0.271l0.271,0.271l0.206,0.272
			l0.203,0.271l0.271,0.34l0.205,0.271l0.272,0.275l0.202,0.272l0.205,0.337l0.272,0.272L1055.305,545.035z M1020.423,521.439
			c2.856,0.543,4.692,3.265,4.217,6.12c-0.544,2.788-3.264,4.693-6.121,4.149h-0.067l-0.339-0.07l-0.343-0.065l-0.271-0.071h-0.34
			l-0.271-0.065l-0.341-0.07l-0.339-0.065h-0.272l-0.338-0.07h-0.344l-0.339-0.066h-0.272l-0.339-0.07h-0.341l-0.272-0.067h-0.337
			l-0.342-0.068h-0.342h-0.34l-0.271-0.068h-0.34h-0.34h-0.34h-0.271l-0.342-0.067h-0.341h-0.341h-0.339h-0.34
			c-2.856,0-5.167-2.31-5.167-5.236c0-2.854,2.311-5.234,5.167-5.234h0.408l0.406,0.068h0.41h0.409h0.339h0.407h0.408l0.408,0.067
			h0.406h0.342l0.408,0.068h0.408l0.408,0.068h0.339l0.407,0.069h0.406l0.342,0.068h0.409l0.407,0.067l0.341,0.068l0.407,0.07h0.407
			l0.342,0.065l0.407,0.071l0.408,0.066l0.339,0.07l0.408,0.064l0.34,0.071l0.407,0.066H1020.423z M980.782,520.353
			c2.855,0,5.167,2.38,5.167,5.234c0,2.926-2.312,5.236-5.167,5.236h-10.471c-2.856,0-5.236-2.31-5.236-5.236
			c0-2.854,2.38-5.234,5.236-5.234H980.782z"/>
	</g>
	<g>
		<path fill-rule="evenodd" clip-rule="evenodd" fill="#01B9AD" d="M443.889,128.563c-29.238,0-53.852,18.766-60.789,44.196
			c-28.489,3.128-50.589,25.84-50.589,53.309c0,29.647,25.635,53.717,57.253,53.717l0,0H536.16l0,0c0.136,0,0.271,0,0.475,0
			c27.266,0,49.365-20.739,49.365-46.373c0-19.039-12.24-35.426-29.851-42.565c0.068-0.273,0.068-0.612,0.068-0.952
			c0-18.087-15.639-32.775-34.948-32.775c-7.547,0-14.485,2.245-20.195,6.053C491.214,142.773,469.319,128.563,443.889,128.563
			L443.889,128.563z"/>
		<path fill-rule="evenodd" clip-rule="evenodd" fill="#01B9AD" d="M285.595,271.556c-14.618,0-26.926,9.384-30.394,22.099
			c-14.279,1.496-25.294,12.851-25.294,26.654c0,14.823,12.782,26.791,28.626,26.791l0,0h73.164l0,0c0.136,0,0.204,0,0.272,0
			c13.599,0,24.682-10.335,24.682-23.12c0-9.586-6.12-17.745-14.89-21.281c0-0.204,0-0.342,0-0.477
			c0-9.044-7.82-16.388-17.476-16.388c-3.74,0-7.275,1.089-10.131,2.993C309.258,278.628,298.31,271.556,285.595,271.556
			L285.595,271.556z"/>
	</g>
</g>
</svg>
