<?xml version="1.0" encoding="utf-8"?>
<!-- Generator: Adobe Illustrator 16.0.0, SVG Export Plug-In . SVG Version: 6.00 Build 0)  -->
<!DOCTYPE svg PUBLIC "-//W3C//DTD SVG 1.1//EN" "http://www.w3.org/Graphics/SVG/1.1/DTD/svg11.dtd">
<svg version="1.1" id="Domain_Checker_2_" xmlns="http://www.w3.org/2000/svg" xmlns:xlink="http://www.w3.org/1999/xlink" x="0px"
	 y="0px" width="917.395px" height="1001.621px" viewBox="0 0 917.395 1001.621" enable-background="new 0 0 917.395 1001.621"
	 xml:space="preserve">
<circle id="Background_2" fill="#1B4F7F" cx="449.647" cy="477.557" r="399"/>
<g>
	<path fill-rule="evenodd" clip-rule="evenodd" fill="#3DD4E9" d="M672,467.061c128.579,0,233.495-104.917,233.495-233.496
		C905.495,104.917,800.579,0,672,0C543.352,0,438.435,104.917,438.435,233.564C438.435,362.144,543.352,467.061,672,467.061
		L672,467.061z"/>
	<path fill-rule="evenodd" clip-rule="evenodd" fill="#7DC983" d="M901.553,276.265c-3.945,21.419-10.811,41.815-20.194,60.719
		H695.526c-16.729,0-30.395-13.666-30.395-30.325l0,0c0-16.728,13.666-30.394,30.395-30.394H901.553z M883.193,133.814
		c14.279,30.258,22.302,64.052,22.302,99.75c0,3.808-0.068,7.548-0.273,11.288c-6.593,2.719-13.869,4.146-21.417,4.146H727.688
		c-31.687,0-57.591-25.906-57.591-57.591l0,0c0-31.687,25.904-57.593,57.591-57.593H883.193z M453.938,317.401
		c-9.654-25.021-15.095-52.219-15.435-80.641h75.405c9.182,0,16.729,7.547,16.729,16.726l0,0c0,2.448-0.545,4.76-1.497,6.868h42.974
		c15.707,0,28.558,12.852,28.558,28.559l0,0c0,15.707-12.851,28.488-28.558,28.488H453.938z M470.597,115.253
		c8.975-15.231,19.584-29.376,31.687-42.158h89.754c11.628,0,21.077,9.451,21.077,21.079l0,0c0,11.559-9.449,21.079-21.077,21.079
		H470.597z"/>
	<path fill-rule="evenodd" clip-rule="evenodd" fill="#FFFFFF" d="M779.297,289.66c13.599,0,25.228-8.567,29.778-20.534
		c5.445-5.099,8.842-12.375,8.842-20.398l0,0c0-15.436-12.646-28.014-28.014-28.014h-19.311c3.196-5.712,5.03-12.308,5.03-19.312
		c0-21.69-17.543-39.233-39.231-39.233c-21.624,0-39.233,17.543-39.233,39.233c0,0.341,0.066,0.681,0.066,1.021
		c-2.311-0.748-4.689-1.156-7.204-1.156c-11.494,0-21.014,8.432-22.711,19.447h-14.486c-15.434,0-28.012,12.578-28.012,28.014l0,0
		c0,15.435,12.578,28.015,28.012,28.015h22.575c5.101,10.743,16.048,18.154,28.696,18.154c12.715,0,23.662-7.412,28.76-18.154
		h20.876C759.51,284.561,768.826,289.66,779.297,289.66L779.297,289.66z M822.203,54.736c13.189,11.152,25.159,23.662,35.628,37.398
		H753.595c-2.652,2.651-6.324,4.284-10.334,4.284c-1.634,0-3.133-0.273-4.558-0.749c0,0.272,0,0.476,0,0.68
		c0,13.736-11.152,24.887-24.886,24.887c-13.801,0-24.955-11.15-24.955-24.887c0-4.487,1.227-8.635,3.263-12.307H679.82
		c-9.724,0-17.747-7.956-17.747-17.747l0,0c0-5.1,2.174-9.655,5.573-12.919c2.925-7.615,10.269-13.055,18.905-13.055
		c6.663,0,12.576,3.197,16.25,8.16h13.26c3.263-6.799,10.2-11.491,18.223-11.491c8.021,0,15.027,4.692,18.221,11.491h14.348
		c5.372,0,10.2,2.449,13.531,6.255H822.203z M489.977,121.439c4.214,0,8.157,0.952,11.761,2.583
		c2.993-1.426,6.528-2.38,10.199-2.583c-0.611-1.904-0.951-3.943-0.951-6.051c0-12.172,10.88-21.963,24.277-21.963
		c13.462,0,24.34,9.791,24.34,21.963c0,4.488-1.563,8.634-4.077,12.171c7.749,2.176,13.326,8.229,13.326,15.435
		c0,3.061-1.091,5.984-2.856,8.433c10.879,2.108,17.881,5.371,17.881,8.975c0,6.323-21.008,11.491-46.983,11.491
		c-10.743,0-20.603-0.883-28.559-2.379c-4.827,4.353-11.285,7.004-18.357,7.004c-15.229,0-27.538-12.308-27.538-27.539
		C462.438,133.747,474.747,121.439,489.977,121.439L489.977,121.439z"/>
</g>
<g>
	<g>
		<path fill-rule="evenodd" clip-rule="evenodd" fill="#FFFFFF" d="M116.953,251.583h662.275c10.676,0,19.38,8.771,19.38,19.377
			v436.26c0,10.605-8.704,19.309-19.38,19.309H116.953c-10.607,0-19.31-8.703-19.31-19.309v-436.26
			C97.643,260.354,106.346,251.583,116.953,251.583L116.953,251.583z"/>
		<g>
			<path fill-rule="evenodd" clip-rule="evenodd" fill="#43B8C9" d="M111.716,251.583h672.748c7.753,0,14.144,6.391,14.144,14.143
				v43.381c0,0.612-0.544,1.156-1.224,1.156H97.643v-44.537C97.643,257.974,103.966,251.583,111.716,251.583L111.716,251.583z"/>
			<path fill-rule="evenodd" clip-rule="evenodd" fill="#FFDB79" d="M132.251,293.128c7.072,0,12.851-5.78,12.851-12.851
				c0-7.072-5.779-12.852-12.851-12.852c-7.072,0-12.851,5.78-12.851,12.852C119.401,287.348,125.179,293.128,132.251,293.128
				L132.251,293.128z"/>
			<path fill-rule="evenodd" clip-rule="evenodd" fill="#9BDDE7" d="M168.221,293.128c7.072,0,12.918-5.78,12.918-12.851
				c0-7.072-5.846-12.852-12.918-12.852s-12.852,5.78-12.852,12.852C155.37,287.348,161.149,293.128,168.221,293.128
				L168.221,293.128z"/>
			<path fill-rule="evenodd" clip-rule="evenodd" fill="#F77B55" d="M204.191,293.128c7.07,0,12.851-5.78,12.851-12.851
				c0-7.072-5.78-12.852-12.851-12.852c-7.072,0-12.852,5.78-12.852,12.852C191.339,287.348,197.119,293.128,204.191,293.128
				L204.191,293.128z"/>
			<rect x="236.556" y="269.465" fill-rule="evenodd" clip-rule="evenodd" fill="#FFFFFF" width="542.059" height="24.411"/>
		</g>
	</g>
	<g>
		<path fill-rule="evenodd" clip-rule="evenodd" fill="#FFD45B" d="M175.564,385.533h552.873c9.723,0,17.679,7.958,17.679,17.679
			v34.951c0,9.724-7.956,17.679-17.679,17.679H175.564c-9.792,0-17.746-7.955-17.746-17.679v-34.951
			C157.818,393.491,165.772,385.533,175.564,385.533L175.564,385.533z"/>
		<rect x="377.24" y="343.786" fill-rule="evenodd" clip-rule="evenodd" fill="#CCCCCC" width="149.25" height="10.812"/>
		<rect x="194.808" y="343.786" fill-rule="evenodd" clip-rule="evenodd" fill="#CCCCCC" width="149.318" height="10.812"/>
		<rect x="564.771" y="343.786" fill-rule="evenodd" clip-rule="evenodd" fill="#CCCCCC" width="149.25" height="10.812"/>
		<path fill-rule="evenodd" clip-rule="evenodd" fill="#6C6D70" d="M211.398,436.598l-7.888-26.042h4.624l4.148,15.027l1.496,5.575
			c0.068-0.271,0.476-2.038,1.36-5.372l4.079-15.231h4.558l3.875,15.095l1.292,4.964l1.496-5.032l4.488-15.027h4.283l-8.159,26.042
			h-4.556l-4.148-15.571l-1.02-4.486l-5.235,20.057H211.398z M247.64,436.598l-7.888-26.042h4.623l4.148,15.027l1.428,5.575
			c0.067-0.271,0.543-2.038,1.359-5.372l4.148-15.231h4.487l3.945,15.095l1.291,4.964l1.497-5.032l4.486-15.027h4.285l-8.161,26.042
			h-4.554l-4.148-15.571l-1.02-4.486l-5.304,20.057H247.64z M283.813,436.598l-7.82-26.042h4.557l4.147,15.027l1.496,5.575
			c0.066-0.271,0.545-2.038,1.359-5.372l4.149-15.231h4.486l3.945,15.095l1.223,4.964l1.496-5.032l4.556-15.027h4.283l-8.159,26.042
			h-4.625l-4.079-15.571l-1.088-4.486l-5.235,20.057H283.813z M313.867,436.598v-5.031h5.032v5.031H313.867z"/>
		<path fill-rule="evenodd" clip-rule="evenodd" fill="#ADECF7" d="M224.316,601.962c28.355,0,51.473-23.119,51.473-51.472
			c0-28.354-23.117-51.472-51.473-51.472c-28.354,0-51.471,23.117-51.471,51.472C172.845,578.843,195.963,601.962,224.316,601.962
			L224.316,601.962z"/>
		<polygon fill-rule="evenodd" clip-rule="evenodd" fill="#F26D6E" points="195.76,539.545 222.549,585.169 285.718,481.611 
			224.113,552.258 		"/>
		<rect x="323.659" y="525.468" fill-rule="evenodd" clip-rule="evenodd" fill="#A6A9AB" width="242.609" height="7.684"/>
		<rect x="420.688" y="547.365" fill-rule="evenodd" clip-rule="evenodd" fill="#A6A9AB" width="145.58" height="7.682"/>
		<rect x="320.733" y="569.19" fill-rule="evenodd" clip-rule="evenodd" fill="#A6A9AB" width="159.383" height="7.752"/>
		<rect x="520.642" y="569.19" fill-rule="evenodd" clip-rule="evenodd" fill="#A6A9AB" width="45.626" height="7.752"/>
		<rect x="349.429" y="547.365" fill-rule="evenodd" clip-rule="evenodd" fill="#A6A9AB" width="25.702" height="7.682"/>
	</g>
</g>
<g>
	<path fill-rule="evenodd" clip-rule="evenodd" fill="#E62C34" d="M621.548,502.622h214.457c13.733,0,24.954,11.221,24.954,24.955
		v197.596c0,13.734-11.221,24.953-24.954,24.953H621.548c-13.669,0-24.887-11.219-24.887-24.953V527.577
		C596.661,513.842,607.879,502.622,621.548,502.622L621.548,502.622z"/>
	<rect x="596.661" y="586.664" fill-rule="evenodd" clip-rule="evenodd" fill="#08C6A2" width="264.298" height="79.419"/>
	<path fill-rule="evenodd" clip-rule="evenodd" fill="#FEFEFE" d="M718.781,710.688c0,3.876,0.813,6.733,2.515,8.637
		c1.701,1.971,3.807,2.924,6.392,2.924c2.515,0,4.692-0.953,6.322-2.924c1.703-1.903,2.585-4.828,2.585-8.773
		c0-3.736-0.882-6.593-2.585-8.496c-1.699-1.907-3.808-2.856-6.322-2.856c-2.585,0-4.69,0.949-6.392,2.856
		C719.595,703.958,718.781,706.815,718.781,710.688L718.781,710.688z M713.544,710.688c0-5.574,1.563-9.724,4.625-12.377
		c2.585-2.242,5.779-3.398,9.519-3.398c4.148,0,7.548,1.362,10.199,4.082c2.583,2.72,3.944,6.459,3.944,11.287
		c0,3.876-0.611,6.866-1.769,9.111c-1.155,2.244-2.855,3.94-5.099,5.167c-2.178,1.223-4.624,1.834-7.276,1.834
		c-4.214,0-7.617-1.29-10.267-4.01C714.837,719.665,713.544,715.788,713.544,710.688L713.544,710.688z M700.491,725.783v-26.245
		h-4.558v-3.946h4.558v-3.193c0-2.04,0.203-3.535,0.545-4.556c0.473-1.291,1.357-2.381,2.582-3.197
		c1.222-0.813,2.991-1.224,5.235-1.224c1.43,0,2.991,0.14,4.76,0.478l-0.749,4.485c-1.087-0.136-2.106-0.271-3.061-0.271
		c-1.561,0-2.649,0.34-3.263,1.021c-0.681,0.61-0.95,1.903-0.95,3.669v2.788h5.846v3.946h-5.777v26.245H700.491z M666.899,725.783
		v-30.191h4.624v4.287c2.176-3.332,5.37-4.966,9.588-4.966c1.835,0,3.467,0.342,5.032,1.02c1.496,0.614,2.65,1.497,3.398,2.584
		c0.749,1.021,1.293,2.313,1.563,3.741c0.204,0.95,0.341,2.584,0.341,4.964v18.562h-5.168v-18.357c0-2.108-0.203-3.674-0.544-4.691
		c-0.407-1.02-1.156-1.836-2.176-2.449c-0.953-0.611-2.177-0.95-3.536-0.95c-2.174,0-4.012,0.68-5.645,2.107
		c-1.563,1.359-2.309,4.012-2.309,7.887v16.454H666.899z M653.98,725.783v-30.191h5.099v30.191H653.98z M653.98,689.949v-5.847
		h5.099v5.847H653.98z M639.296,725.783v-5.847h5.778v5.847H639.296z"/>
	<path fill-rule="evenodd" clip-rule="evenodd" fill="#FEFEFE" d="M729.861,639.294l0.684,4.556
		c-1.429,0.271-2.724,0.475-3.877,0.475c-1.837,0-3.264-0.34-4.285-0.884c-1.019-0.613-1.765-1.36-2.175-2.312
		c-0.408-1.021-0.613-2.991-0.613-6.053v-17.404h-3.805v-4.015h3.805v-7.411l5.102-3.127v10.538h5.165v4.015h-5.165v17.678
		c0,1.426,0.135,2.381,0.271,2.788c0.201,0.407,0.477,0.746,0.885,1.02c0.409,0.271,1.019,0.34,1.768,0.34
		C728.165,639.498,728.912,639.429,729.861,639.294L729.861,639.294z M690.223,625.899h16.794c-0.205-2.516-0.882-4.42-1.901-5.711
		c-1.634-1.972-3.741-2.927-6.326-2.927c-2.381,0-4.353,0.751-5.914,2.313C691.242,621.137,690.358,623.247,690.223,625.899
		L690.223,625.899z M706.948,634.125l5.304,0.679c-0.815,3.063-2.379,5.509-4.621,7.14c-2.245,1.701-5.101,2.583-8.637,2.583
		c-4.421,0-7.889-1.356-10.472-4.077c-2.583-2.719-3.878-6.528-3.878-11.426c0-5.03,1.295-8.972,3.947-11.763
		c2.583-2.787,5.981-4.213,10.13-4.213c4.014,0,7.344,1.356,9.858,4.077c2.585,2.787,3.876,6.665,3.876,11.628
		c0,0.271-0.069,0.748-0.069,1.358h-22.504c0.206,3.266,1.155,5.849,2.857,7.619c1.63,1.698,3.737,2.582,6.254,2.582
		c1.904,0,3.468-0.477,4.827-1.429C705.115,637.868,706.2,636.3,706.948,634.125L706.948,634.125z M653.98,643.917v-30.26h4.623
		v4.285c2.177-3.266,5.373-4.895,9.588-4.895c1.838,0,3.468,0.34,5.032,0.95c1.496,0.679,2.652,1.564,3.399,2.584
		c0.75,1.09,1.292,2.313,1.563,3.809c0.206,0.95,0.271,2.584,0.271,4.964v18.563h-5.1v-18.358c0-2.108-0.203-3.675-0.609-4.692
		c-0.34-1.022-1.09-1.835-2.109-2.449c-1.019-0.61-2.178-0.949-3.537-0.949c-2.174,0-4.08,0.68-5.644,2.106
		c-1.561,1.36-2.38,3.944-2.38,7.818v16.524H653.98z M639.296,643.917v-5.848h5.778v5.848H639.296z"/>
	<path fill-rule="evenodd" clip-rule="evenodd" fill="#FEFEFE" d="M715.447,560.146v-30.19h4.623v4.286
		c0.886-1.497,2.178-2.72,3.742-3.606c1.565-0.883,3.33-1.358,5.37-1.358c2.244,0,4.082,0.476,5.507,1.427
		c1.43,0.887,2.449,2.177,2.993,3.876c2.38-3.536,5.512-5.303,9.383-5.303c2.993,0,5.305,0.815,6.937,2.516
		c1.63,1.629,2.448,4.214,2.448,7.616v20.737h-5.167v-19.038c0-2.038-0.137-3.469-0.477-4.419c-0.343-0.885-0.952-1.564-1.837-2.109
		c-0.885-0.61-1.904-0.883-3.057-0.883c-2.109,0-3.877,0.748-5.306,2.107c-1.429,1.427-2.108,3.741-2.108,6.802v17.54H733.4v-19.581
		c0-2.314-0.411-4.014-1.294-5.17c-0.815-1.085-2.177-1.698-4.078-1.698c-1.428,0-2.79,0.408-4.011,1.155
		c-1.228,0.747-2.109,1.837-2.653,3.331c-0.544,1.429-0.814,3.538-0.814,6.325v15.638H715.447z M686.414,545.051
		c0,3.877,0.818,6.733,2.515,8.636c1.703,1.97,3.812,2.925,6.395,2.925c2.516,0,4.693-0.955,6.322-2.925
		c1.7-1.902,2.582-4.828,2.582-8.771c0-3.741-0.882-6.597-2.582-8.499c-1.698-1.905-3.807-2.857-6.322-2.857
		c-2.583,0-4.691,0.952-6.395,2.857C687.232,538.319,686.414,541.174,686.414,545.051L686.414,545.051z M681.179,545.051
		c0-5.574,1.564-9.723,4.624-12.376c2.583-2.243,5.779-3.398,9.521-3.398c4.145,0,7.548,1.358,10.198,4.078
		c2.584,2.72,3.942,6.462,3.942,11.29c0,3.873-0.61,6.867-1.765,9.108c-1.158,2.244-2.859,3.944-5.101,5.168
		c-2.244,1.225-4.624,1.837-7.275,1.837c-4.218,0-7.617-1.291-10.268-4.011C682.474,554.028,681.179,550.15,681.179,545.051
		L681.179,545.051z M673.699,549.065l5.032,0.748c-0.545,3.398-1.974,6.118-4.215,8.021c-2.243,1.972-5.031,2.924-8.365,2.924
		c-4.078,0-7.411-1.291-9.927-4.011c-2.519-2.72-3.739-6.598-3.739-11.56c0-3.264,0.545-6.118,1.631-8.567
		c1.021-2.448,2.721-4.284,4.895-5.508c2.177-1.225,4.626-1.836,7.209-1.836c3.266,0,5.985,0.815,8.023,2.516
		c2.109,1.629,3.4,4.012,4.013,7.072l-4.966,0.747c-0.475-2.041-1.29-3.537-2.515-4.556c-1.222-1.02-2.653-1.565-4.354-1.565
		c-2.583,0-4.692,0.954-6.321,2.791c-1.565,1.833-2.38,4.757-2.38,8.703c0,4.08,0.747,7.003,2.313,8.837
		c1.563,1.835,3.604,2.79,6.118,2.79c1.971,0,3.673-0.614,5.033-1.836C672.476,553.551,673.358,551.648,673.699,549.065
		L673.699,549.065z M639.296,560.146v-5.848h5.778v5.848H639.296z"/>
</g>
<g>
	<g>
		<path fill-rule="evenodd" clip-rule="evenodd" fill="#E6E6E6" d="M362.009,766.376c6.935,3.128,13.123,7.548,18.154,13.055
			l20.807-9.449l14.619,32.228l-20.807,9.384c0.408,3.671,0.408,7.479,0.068,11.287c-0.409,3.809-1.156,7.48-2.245,11.016
			l18.564,13.328l-20.604,28.692l-18.563-13.259c-5.983,4.354-12.918,7.548-20.33,9.248l-2.244,22.711l-35.222-3.469l2.244-22.642
			c-6.935-3.129-13.123-7.616-18.222-13.056l-20.74,9.384l-14.618-32.163l20.738-9.448c-0.34-3.674-0.408-7.412,0-11.221
			c0.339-3.808,1.156-7.549,2.176-11.084l-18.496-13.258l20.535-28.764l18.563,13.327c6.052-4.418,12.987-7.616,20.398-9.315
			l2.244-22.71l35.153,3.468L362.009,766.376z"/>
		<path fill-rule="evenodd" clip-rule="evenodd" fill="#363F48" d="M340.929,799.829c9.724,0.956,16.863,9.588,15.912,19.313
			c-0.952,9.725-9.655,16.863-19.311,15.911c-9.724-0.951-16.863-9.656-15.912-19.379
			C322.571,806.018,331.207,798.879,340.929,799.829L340.929,799.829z M342.63,782.832c19.107,1.837,33.113,18.902,31.209,38.01
			c-1.902,19.105-18.902,33.047-38.009,31.211c-19.107-1.904-33.114-18.903-31.21-38.01
			C306.456,794.935,323.524,780.928,342.63,782.832L342.63,782.832z"/>
	</g>
	<g>
		<path fill-rule="evenodd" clip-rule="evenodd" fill="#E6E6E6" d="M234.312,775.013c2.924,4.964,4.761,10.402,5.508,15.979
			l16.999,3.33l-5.168,26.247l-16.931-3.264c-1.36,2.447-3.06,4.761-4.964,6.936c-1.904,2.177-3.943,4.148-6.188,5.847l5.643,16.322
			l-25.362,8.701l-5.575-16.317c-5.644,0-11.355-1.021-16.658-3.266l-11.356,13.057l-20.126-17.611l11.287-12.988
			c-2.922-5.032-4.76-10.473-5.506-16.047l-16.933-3.33l5.101-26.247l16.999,3.264c1.36-2.38,2.992-4.759,4.896-6.937
			c1.905-2.176,4.013-4.148,6.188-5.848l-5.575-16.318l25.295-8.703l5.644,16.385c5.644-0.066,11.287,1.023,16.59,3.198
			l11.356-12.989l20.194,17.545L234.312,775.013z"/>
		<path fill-rule="evenodd" clip-rule="evenodd" fill="#363F48" d="M206.638,786.369c5.576,4.895,6.188,13.325,1.361,18.899
			c-4.896,5.578-13.328,6.122-18.903,1.294s-6.188-13.325-1.292-18.901C192.631,782.083,201.063,781.541,206.638,786.369
			L206.638,786.369z M215.138,776.643c11.015,9.521,12.172,26.18,2.583,37.127c-9.519,10.947-26.177,12.104-37.125,2.583
			c-10.949-9.587-12.104-26.176-2.584-37.191C187.601,768.215,204.191,767.055,215.138,776.643L215.138,776.643z"/>
	</g>
</g>
<g>
	<polygon fill-rule="evenodd" clip-rule="evenodd" fill="#FEFEFE" points="829.409,633.377 862.387,651.329 895.365,669.348 
		867.281,677.303 889.448,713.612 873.403,723.47 851.233,687.095 831.313,708.444 830.361,670.912 	"/>
	<path fill="#FEFEFE" d="M58.681,408.448c-2.856,0.204-5.305-2.041-5.508-4.894c-0.136-2.857,2.039-5.373,4.963-5.509h0.34
		l0.408-0.067h0.407h0.41h0.339h0.407h0.408l0.409-0.068h0.407h10.404c2.924,0,5.235,2.38,5.235,5.234
		c0,2.926-2.312,5.236-5.235,5.236H61.671h-0.34h-0.339h-0.34h-0.341l-0.271,0.067h-0.339h-0.34H59.02H58.681z M26.178,409.266
		c2.313-1.701,5.577-1.157,7.276,1.223c1.699,2.312,1.156,5.576-1.223,7.276l-0.137,0.068l-0.272,0.204l-0.272,0.203l-0.205,0.137
		l-0.271,0.203l-0.272,0.206l-0.203,0.202l-0.272,0.137l-0.204,0.205l-0.272,0.203l-0.205,0.205l-0.271,0.202l-0.204,0.206
		l-0.272,0.204l-0.205,0.135l-0.271,0.204l-0.204,0.205l-0.271,0.204l-0.204,0.203l-0.205,0.205l-0.272,0.206l-0.203,0.202
		l-0.204,0.272l-0.271,0.206l-0.204,0.204l-0.205,0.204L25.906,423l-0.204,0.204l-0.204,0.203l-0.204,0.272l-0.204,0.204h-0.069
		c-1.972,2.108-5.304,2.176-7.343,0.136c-2.109-1.973-2.176-5.304-0.136-7.342l0.068-0.136l0.271-0.206l0.204-0.271l0.272-0.271
		l0.272-0.272l0.271-0.271l0.272-0.205l0.272-0.274l0.271-0.272l0.272-0.271l0.272-0.202l0.271-0.271l0.272-0.274l0.271-0.204
		l0.272-0.272l0.272-0.204l0.271-0.271l0.339-0.205l0.274-0.271l0.271-0.206l0.272-0.272l0.272-0.201l0.34-0.275l0.273-0.204
		l0.272-0.204l0.339-0.271l0.271-0.204l0.273-0.203l0.34-0.203l0.271-0.207l0.34-0.272L26.178,409.266z M1.428,446.39
		c0.611-2.855,3.4-4.625,6.255-4.011c2.787,0.611,4.555,3.399,3.944,6.255v0.068l-0.068,0.271l-0.068,0.339l-0.068,0.272
		l-0.066,0.342l-0.069,0.339v0.271l-0.068,0.34l-0.068,0.34l-0.069,0.272l-0.068,0.339v0.34l-0.068,0.274l-0.068,0.34v0.34
		l-0.068,0.271v0.34l-0.068,0.34v0.272l-0.068,0.339v0.342l-0.067,0.34v0.271v0.339l-0.068,0.339v0.34v0.273v0.339l-0.069,0.341
		v0.341l0,0c-0.067,2.923-2.447,5.168-5.371,5.099c-2.856-0.067-5.168-2.447-5.031-5.37v-0.069v-0.409v-0.407v-0.341l0.067-0.408
		v-0.407v-0.408l0.068-0.342v-0.408l0.067-0.407v-0.408l0.068-0.339v-0.408l0.068-0.407l0.068-0.342v-0.408l0.068-0.408l0.067-0.339
		l0.068-0.408l0.069-0.408v-0.342l0.068-0.408l0.068-0.34l0.068-0.407l0.069-0.34l0.068-0.408l0.135-0.407l0.068-0.343l0.069-0.407
		l0.068-0.34V446.39z M0,489.16c0-2.855,2.38-5.168,5.236-5.168c2.854,0,5.234,2.313,5.234,5.168v10.47
		c0,2.924-2.38,5.237-5.234,5.237c-2.856,0-5.236-2.313-5.236-5.237V489.16z M0,530.975c0-2.855,2.38-5.235,5.236-5.235
		c2.854,0,5.234,2.38,5.234,5.235v10.474c0,2.856-2.38,5.236-5.234,5.236c-2.856,0-5.236-2.38-5.236-5.236V530.975z M0,572.793
		c0-2.922,2.38-5.235,5.236-5.235c2.854,0,5.234,2.313,5.234,5.235v10.403c0,2.924-2.38,5.236-5.234,5.236
		c-2.856,0-5.236-2.313-5.236-5.236V572.793z M0,614.542c0-2.857,2.38-5.167,5.236-5.167c2.854,0,5.234,2.31,5.234,5.167v10.471
		c0,2.858-2.38,5.238-5.234,5.238c-2.856,0-5.236-2.38-5.236-5.238V614.542z M0,656.361c0-2.856,2.38-5.236,5.236-5.236
		c2.854,0,5.234,2.38,5.234,5.236v10.471c0,2.854-2.38,5.235-5.234,5.235c-2.856,0-5.236-2.381-5.236-5.235V656.361z M0,698.176
		c0-2.922,2.38-5.235,5.236-5.235c2.854,0,5.234,2.313,5.234,5.235v10.403c0,2.926-2.38,5.237-5.234,5.237
		C2.38,713.817,0,711.505,0,708.58V698.176z M0,739.927c0-2.857,2.38-5.167,5.236-5.167c2.854,0,5.234,2.31,5.234,5.167V750.4
		c0,2.854-2.38,5.232-5.234,5.232C2.38,755.632,0,753.254,0,750.4V739.927z M2.856,783.105c-0.885-2.788,0.613-5.714,3.333-6.598
		c2.788-0.883,5.711,0.614,6.595,3.399l0.068,0.275l0.136,0.27l0.069,0.271l0.067,0.342l0.136,0.27l0.068,0.272l0.136,0.341
		l0.136,0.272l0.069,0.271l0.135,0.34l0.137,0.273l0.068,0.27l0.136,0.274l0.135,0.34l0.068,0.271l0.137,0.271l0.135,0.272
		l0.136,0.342l0.136,0.271l0.069,0.273l0.136,0.271l0.135,0.271l0.136,0.272l0.136,0.34l0.135,0.271l0.136,0.274l0.136,0.272
		l0.136,0.272l0.204,0.271l0.136,0.271l0.068,0.138c1.36,2.584,0.407,5.71-2.109,7.072c-2.584,1.359-5.71,0.407-7.07-2.109
		l-0.138-0.203l-0.203-0.34l-0.137-0.341l-0.203-0.341l-0.137-0.339l-0.203-0.341l-0.137-0.339l-0.136-0.34l-0.205-0.34l-0.135-0.34
		l-0.136-0.343l-0.204-0.34l-0.136-0.338l-0.136-0.342l-0.135-0.338l-0.137-0.34l-0.205-0.339l-0.136-0.344l-0.136-0.339
		l-0.135-0.341l-0.136-0.406l-0.136-0.34l-0.136-0.339l-0.067-0.341l-0.136-0.339l-0.137-0.411l-0.136-0.34l-0.135-0.34
		l-0.137-0.338l-0.067-0.407L2.856,783.105z M30.666,817.917c-2.515-1.426-3.332-4.623-1.904-7.138
		c1.497-2.515,4.692-3.334,7.208-1.904v0.069l0.272,0.135l0.272,0.135l0.271,0.137l0.272,0.203l0.272,0.137l0.272,0.136l0.272,0.138
		l0.272,0.132l0.271,0.138l0.272,0.137l0.271,0.137l0.272,0.137l0.272,0.136l0.271,0.136l0.341,0.137l0.272,0.134l0.272,0.138
		l0.271,0.137l0.272,0.134l0.272,0.137l0.34,0.136l0.272,0.067l0.271,0.136l0.271,0.136l0.341,0.138l0.271,0.067l0.271,0.136
		l0.273,0.137l0.34,0.066l0.272,0.136h0.068c2.72,0.955,4.147,3.944,3.195,6.665c-0.951,2.72-3.943,4.149-6.663,3.196l-0.137-0.069
		l-0.34-0.136l-0.408-0.136l-0.341-0.136l-0.338-0.136l-0.34-0.135l-0.34-0.138l-0.341-0.135l-0.339-0.137l-0.409-0.138
		l-0.339-0.132l-0.34-0.138l-0.34-0.203l-0.34-0.138l-0.34-0.136l-0.34-0.137l-0.34-0.205l-0.34-0.135l-0.34-0.204l-0.34-0.136
		l-0.271-0.204l-0.341-0.136l-0.339-0.137l-0.339-0.202l-0.34-0.205l-0.341-0.136l-0.339-0.204l-0.272-0.203l-0.342-0.136
		l-0.34-0.204L30.666,817.917L30.666,817.917z M73.707,826.349c-2.855,0-5.235-2.38-5.235-5.235c0-2.923,2.379-5.235,5.235-5.235
		h10.471c2.855,0,5.235,2.313,5.235,5.235c0,2.855-2.38,5.235-5.235,5.235H73.707z M115.525,826.349
		c-2.925,0-5.236-2.38-5.236-5.235c0-2.923,2.311-5.235,5.236-5.235h10.471c2.855,0,5.168,2.313,5.168,5.235
		c0,2.855-2.313,5.235-5.168,5.235H115.525z M414.093,826.349c-2.856,0-5.236-2.38-5.236-5.235c0-2.923,2.379-5.235,5.236-5.235
		h5.916c2.924,0,5.235,2.313,5.235,5.235c0,2.855-2.312,5.235-5.235,5.235H414.093z M449.858,826.349
		c-2.856,0-5.235-2.38-5.235-5.235c0-2.923,2.379-5.235,5.235-5.235h10.471c2.855,0,5.234,2.313,5.234,5.235
		c0,2.855-2.379,5.235-5.234,5.235H449.858z M491.675,826.349c-2.924,0-5.235-2.38-5.235-5.235c0-2.923,2.312-5.235,5.235-5.235
		h10.404c2.924,0,5.235,2.313,5.235,5.235c0,2.855-2.312,5.235-5.235,5.235H491.675z M533.425,826.349
		c-2.854,0-5.168-2.38-5.168-5.235c0-2.923,2.313-5.235,5.168-5.235h10.471c2.923,0,5.234,2.313,5.234,5.235
		c0,2.855-2.312,5.235-5.234,5.235H533.425z M575.239,826.349c-2.854,0-5.233-2.38-5.233-5.235c0-2.923,2.379-5.235,5.233-5.235
		h10.476c2.854,0,5.236,2.313,5.236,5.235c0,2.855-2.382,5.235-5.236,5.235H575.239z M617.06,826.349
		c-2.923,0-5.236-2.38-5.236-5.235c0-2.923,2.313-5.235,5.236-5.235h10.403c2.923,0,5.235,2.313,5.235,5.235
		c0,2.855-2.313,5.235-5.235,5.235H617.06z M658.81,826.349c-2.857,0-5.169-2.38-5.169-5.235c0-2.923,2.312-5.235,5.169-5.235
		h10.469c2.859,0,5.238,2.313,5.238,5.235c0,2.855-2.379,5.235-5.238,5.235H658.81z M700.626,826.349
		c-2.855,0-5.234-2.38-5.234-5.235c0-2.923,2.379-5.235,5.234-5.235h10.472c2.855,0,5.235,2.313,5.235,5.235
		c0,2.855-2.38,5.235-5.235,5.235H700.626z M742.442,826.349c-2.924,0-5.235-2.38-5.235-5.235c0-2.923,2.312-5.235,5.235-5.235
		h10.403c2.924,0,5.234,2.313,5.234,5.235c0,2.855-2.311,5.235-5.234,5.235H742.442z M784.193,826.349
		c-2.856,0-5.168-2.38-5.168-5.235c0-2.923,2.312-5.235,5.168-5.235h10.471c2.855,0,5.234,2.313,5.234,5.235
		c0,2.855-2.379,5.235-5.234,5.235H784.193z M826.008,826.349c-2.855,0-5.234-2.38-5.234-5.235c0-2.923,2.379-5.235,5.234-5.235
		h10.472c2.856,0,5.235,2.313,5.235,5.235c0,2.855-2.379,5.235-5.235,5.235H826.008z M868.846,824.922
		c-2.854,0.609-5.642-1.156-6.255-4.013c-0.613-2.787,1.156-5.577,4.012-6.188l0,0l0.34-0.069l0.339-0.065l0.273-0.068l0.341-0.136
		l0.271-0.069l0.341-0.068l0.272-0.066l0.339-0.068l0.272-0.067l0.271-0.136l0.34-0.067l0.273-0.069l0.341-0.136l0.271-0.067
		l0.342-0.067l0.271-0.137l0.271-0.069l0.341-0.135l0.27-0.066l0.275-0.14l0.339-0.068l0.273-0.136l0.27-0.066l0.34-0.137
		l0.274-0.136l0.27-0.067l0.272-0.138l0.34-0.136l0.274-0.136l0.271-0.067l0,0c2.653-1.155,5.712,0.067,6.868,2.721
		c1.156,2.65-0.068,5.709-2.721,6.865h-0.068l-0.34,0.138l-0.34,0.137l-0.34,0.135l-0.34,0.138l-0.34,0.135l-0.341,0.136
		l-0.407,0.136l-0.339,0.136l-0.341,0.136l-0.339,0.137l-0.408,0.135l-0.34,0.136l-0.343,0.14l-0.338,0.067l-0.41,0.136
		l-0.339,0.135l-0.34,0.068l-0.406,0.137l-0.341,0.137l-0.342,0.066l-0.407,0.137l-0.341,0.066l-0.339,0.137l-0.407,0.068
		l-0.34,0.068l-0.407,0.135l-0.343,0.068l-0.407,0.068l-0.34,0.136L868.846,824.922L868.846,824.922z M906.042,800.239
		c-1.702,2.31-4.966,2.925-7.277,1.225c-2.379-1.635-2.921-4.896-1.292-7.277l0.135-0.203l0.205-0.203l0.202-0.272l0.139-0.271
		l0.204-0.273l0.137-0.203l0.203-0.273l0.136-0.271l0.203-0.272l0.137-0.272l0.136-0.27l0.203-0.273l0.136-0.204l0.137-0.271
		l0.204-0.271l0.136-0.274l0.137-0.273l0.135-0.271l0.207-0.271l0.134-0.272l0.137-0.271l0.136-0.273l0.137-0.271l0.136-0.271
		l0.205-0.272l0.132-0.272l0.138-0.274l0.137-0.271l0.136-0.34l0.067-0.272l0.136-0.203c1.225-2.653,4.354-3.808,6.938-2.584
		c2.649,1.225,3.738,4.354,2.583,6.938l-0.136,0.271l-0.204,0.34l-0.136,0.34l-0.204,0.339l-0.136,0.341l-0.135,0.339l-0.208,0.341
		l-0.135,0.341l-0.204,0.34l-0.203,0.339l-0.138,0.272l-0.201,0.339l-0.204,0.34l-0.137,0.34l-0.203,0.344l-0.206,0.271
		l-0.134,0.341l-0.204,0.338l-0.205,0.272l-0.206,0.34l-0.203,0.339l-0.205,0.273l-0.201,0.341l-0.205,0.339l-0.205,0.271
		l-0.201,0.34l-0.204,0.273l-0.204,0.34l-0.205,0.271l-0.203,0.34L906.042,800.239z M917.395,757.607
		c0,2.854-2.379,5.233-5.235,5.233c-2.924,0-5.234-2.379-5.234-5.233v-10.472c0-2.858,2.311-5.238,5.234-5.238
		c2.856,0,5.235,2.38,5.235,5.238V757.607z M917.395,715.788c0,2.923-2.379,5.236-5.235,5.236c-2.924,0-5.234-2.313-5.234-5.236
		v-10.402c0-2.924,2.311-5.237,5.234-5.237c2.856,0,5.235,2.313,5.235,5.237V715.788z M917.395,674.04
		c0,2.854-2.379,5.167-5.235,5.167c-2.924,0-5.234-2.313-5.234-5.167v-10.472c0-2.924,2.311-5.233,5.234-5.233
		c2.856,0,5.235,2.31,5.235,5.233V674.04z M917.395,632.22c0,2.856-2.379,5.237-5.235,5.237c-2.924,0-5.234-2.381-5.234-5.237
		v-10.469c0-2.856,2.311-5.237,5.234-5.237c2.856,0,5.235,2.381,5.235,5.237V632.22z M917.395,590.404
		c0,2.925-2.379,5.236-5.235,5.236c-2.924,0-5.234-2.312-5.234-5.236v-10.4c0-2.925,2.311-5.237,5.234-5.237
		c2.856,0,5.235,2.313,5.235,5.237V590.404z M917.395,548.655c0,2.857-2.379,5.167-5.235,5.167c-2.924,0-5.234-2.31-5.234-5.167
		v-10.472c0-2.854,2.311-5.235,5.234-5.235c2.856,0,5.235,2.381,5.235,5.235V548.655z M917.395,506.837
		c0,2.856-2.379,5.237-5.235,5.237c-2.924,0-5.234-2.381-5.234-5.237v-10.471c0-2.854,2.311-5.234,5.234-5.234
		c2.856,0,5.235,2.38,5.235,5.234V506.837z M917.395,465.021c0,2.925-2.379,5.237-5.235,5.237c-2.924,0-5.234-2.312-5.234-5.237
		v-5.44v-0.339v-0.34v-0.339v-0.272v-0.338l-0.069-0.341v-0.341v-0.339v-0.273l-0.066-0.34v-0.339v-0.339l-0.069-0.271v-0.271
		c-0.271-2.926,1.836-5.443,4.76-5.714c2.856-0.272,5.372,1.905,5.645,4.759l0.066,0.34v0.408v0.342l0.068,0.408v0.407l0.068,0.408
		v0.341v0.407v0.409v0.407l0.067,0.409v0.338v0.409v0.407V465.021z M904.952,422.592c1.768,2.312,1.292,5.575-1.02,7.273
		c-2.314,1.771-5.575,1.293-7.275-0.95l-0.137-0.137l-0.203-0.271l-0.138-0.204l-0.202-0.272l-0.203-0.203l-0.205-0.272
		l-0.204-0.207l-0.137-0.271l-0.204-0.272l-0.205-0.201l-0.203-0.207l-0.203-0.272l-0.204-0.203l-0.204-0.272l-0.203-0.204
		l-0.205-0.203l-0.203-0.274l-0.203-0.201l-0.206-0.207l-0.272-0.272l-0.203-0.203l-0.204-0.205l-0.205-0.204l-0.203-0.272
		l-0.204-0.203L891.42,423l-0.202-0.205l-0.203-0.204l-0.205-0.204l-0.272-0.206l-0.206-0.272h-0.066
		c-2.106-1.973-2.312-5.304-0.339-7.412c1.903-2.105,5.233-2.309,7.343-0.337l0.137,0.065l0.27,0.271l0.273,0.272l0.273,0.274
		l0.272,0.205l0.271,0.271l0.271,0.272l0.205,0.271l0.271,0.271l0.272,0.206l0.271,0.272l0.271,0.271l0.204,0.272l0.274,0.271
		l0.271,0.272l0.205,0.271l0.271,0.272l0.272,0.271l0.203,0.271l0.271,0.271l0.205,0.343l0.271,0.271l0.271,0.271l0.206,0.272
		l0.203,0.271l0.271,0.34l0.205,0.271l0.272,0.275l0.202,0.272l0.205,0.337l0.272,0.272L904.952,422.592z M870.07,398.997
		c2.856,0.543,4.692,3.265,4.217,6.12c-0.544,2.788-3.264,4.693-6.121,4.149h-0.067l-0.339-0.07l-0.343-0.065l-0.271-0.071h-0.34
		l-0.271-0.065l-0.341-0.07l-0.339-0.065h-0.272l-0.338-0.07h-0.344l-0.339-0.066h-0.272l-0.339-0.07h-0.341l-0.272-0.067h-0.337
		l-0.342-0.068h-0.342h-0.34l-0.271-0.068h-0.34h-0.34h-0.34h-0.271l-0.342-0.067h-0.341h-0.341h-0.339h-0.34
		c-2.856,0-5.167-2.31-5.167-5.236c0-2.854,2.311-5.234,5.167-5.234h0.408l0.406,0.068h0.41h0.409h0.339h0.407h0.408l0.408,0.067
		h0.406h0.342l0.408,0.068h0.408l0.408,0.068h0.339l0.407,0.069h0.406l0.342,0.068h0.409l0.407,0.067l0.341,0.068l0.407,0.07h0.407
		l0.342,0.065l0.407,0.071l0.408,0.066l0.339,0.07l0.408,0.064l0.34,0.071l0.407,0.066H870.07z M830.43,397.91
		c2.855,0,5.167,2.38,5.167,5.234c0,2.926-2.312,5.236-5.167,5.236h-10.471c-2.856,0-5.236-2.31-5.236-5.236
		c0-2.854,2.38-5.234,5.236-5.234H830.43z"/>
</g>
<g>
	<path fill-rule="evenodd" clip-rule="evenodd" fill="#01B9AD" d="M293.537,6.12c-29.238,0-53.852,18.766-60.789,44.196
		c-28.489,3.128-50.589,25.84-50.589,53.309c0,29.647,25.635,53.717,57.253,53.717l0,0h146.395l0,0c0.136,0,0.271,0,0.475,0
		c27.266,0,49.365-20.739,49.365-46.373c0-19.039-12.24-35.426-29.851-42.565c0.068-0.273,0.068-0.612,0.068-0.952
		c0-18.087-15.639-32.775-34.948-32.775c-7.547,0-14.485,2.245-20.195,6.053C340.861,20.33,318.967,6.12,293.537,6.12L293.537,6.12z
		"/>
	<path fill-rule="evenodd" clip-rule="evenodd" fill="#01B9AD" d="M135.242,149.113c-14.618,0-26.926,9.384-30.394,22.099
		c-14.279,1.496-25.294,12.851-25.294,26.654c0,14.823,12.782,26.791,28.626,26.791l0,0h73.164l0,0c0.136,0,0.204,0,0.272,0
		c13.599,0,24.682-10.335,24.682-23.12c0-9.586-6.12-17.745-14.89-21.281c0-0.204,0-0.342,0-0.477
		c0-9.044-7.82-16.388-17.476-16.388c-3.74,0-7.275,1.089-10.131,2.993C158.906,156.186,147.958,149.113,135.242,149.113
		L135.242,149.113z"/>
</g>
</svg>
